<?xml version="1.0" encoding="UTF-8" standalone="no"?>
<svg
   width="203.2mm"
   height="128.5mm"
   version="1.1"
   viewBox="0 0 203.2 128.5"
   id="svg53"
   sodipodi:docname="WordGeneratorText.svg"
   xmlns:inkscape="http://www.inkscape.org/namespaces/inkscape"
   xmlns:sodipodi="http://sodipodi.sourceforge.net/DTD/sodipodi-0.dtd"
   xmlns="http://www.w3.org/2000/svg"
   xmlns:svg="http://www.w3.org/2000/svg"><defs
   id="defs53" />
<sodipodi:namedview
   id="namedview53"
   pagecolor="#ffffff"
   bordercolor="#000000"
   borderopacity="0.25"
   inkscape:showpageshadow="2"
   inkscape:pageopacity="0.0"
   inkscape:pagecheckerboard="0"
   inkscape:deskcolor="#d1d1d1"
   inkscape:document-units="mm" />
<!-- Panel background -->
<rect
   x="0"
   y="0"
   width="203.2"
   height="128.5"
   fill="#F3F0E8"
   stroke="#000000"
   stroke-width="0.5"
   id="rect1" />
<!-- Module title -->
<path
   d="m 47.148827,4.2734375 h 2.289062 q 0.679688,0 1.011719,0.058594 0.335937,0.054687 0.597656,0.234375 0.265625,0.1796875 0.441406,0.4804688 0.175782,0.296875 0.175782,0.6679687 0,0.4023438 -0.21875,0.7382813 -0.214844,0.3359375 -0.585938,0.5039062 0.523438,0.1523438 0.804688,0.5195313 0.28125,0.3671875 0.28125,0.8632813 0,0.390625 -0.183594,0.7617187 -0.179688,0.3671875 -0.496094,0.5898438 -0.3125,0.21875 -0.773437,0.2695312 Q 50.203514,9.9921875 49.098045,10 h -1.949218 z m 1.15625,0.953125 v 1.3242187 h 0.757812 q 0.675781,0 0.839844,-0.019531 0.296875,-0.035156 0.464844,-0.203125 0.171875,-0.171875 0.171875,-0.4492188 0,-0.265625 -0.148438,-0.4296875 Q 50.246483,5.28125 49.95742,5.2460937 49.785545,5.2265625 48.969139,5.2265625 Z m 0,2.2773437 v 1.5312501 h 1.070312 q 0.625,0 0.792969,-0.035156 0.257812,-0.046875 0.417969,-0.2265625 0.164062,-0.1835937 0.164062,-0.4882812 0,-0.2578125 -0.125,-0.4375001 -0.125,-0.1796875 -0.363281,-0.2617187 -0.234375,-0.082031 -1.023438,-0.082031 z M 52.687889,7.171875 q 0,-0.875 0.261719,-1.46875 0.195312,-0.4375 0.53125,-0.7851563 0.339844,-0.3476562 0.742187,-0.515625 0.535157,-0.2265625 1.234375,-0.2265625 1.265625,0 2.023438,0.7851563 0.761719,0.7851562 0.761719,2.1835937 0,1.3867188 -0.753907,2.1718751 -0.753906,0.7812497 -2.015625,0.7812497 -1.277343,0 -2.03125,-0.7773435 -0.753906,-0.78125 -0.753906,-2.1484375 z m 1.191406,-0.039063 q 0,0.9726563 0.449219,1.4765625 0.449219,0.5 1.140625,0.5 0.691406,0 1.132813,-0.4960937 0.445312,-0.5 0.445312,-1.4960938 0,-0.984375 -0.433594,-1.46875 -0.429687,-0.484375 -1.144531,-0.484375 -0.714844,0 -1.152344,0.4921875 -0.4375,0.4882812 -0.4375,1.4765625 z m 5.03125,0.039063 q 0,-0.875 0.261719,-1.46875 0.195313,-0.4375 0.53125,-0.7851563 0.339844,-0.3476562 0.742188,-0.515625 0.535156,-0.2265625 1.234375,-0.2265625 1.265625,0 2.023437,0.7851563 0.761719,0.7851562 0.761719,2.1835937 0,1.3867188 -0.753906,2.1718751 -0.753907,0.7812497 -2.015625,0.7812497 -1.277344,0 -2.03125,-0.7773435 -0.753907,-0.78125 -0.753907,-2.1484375 z m 1.191407,-0.039063 q 0,0.9726563 0.449218,1.4765625 0.449219,0.5 1.140625,0.5 0.691407,0 1.132813,-0.4960937 0.445312,-0.5 0.445312,-1.4960938 0,-0.984375 -0.433593,-1.46875 -0.429688,-0.484375 -1.144532,-0.484375 -0.714843,0 -1.152343,0.4921875 -0.4375,0.4882812 -0.4375,1.4765625 z m 7.929687,0.7617187 V 6.9296875 h 2.492188 v 2.28125 Q 70.160545,9.5625 69.469139,9.8320313 q -0.6875,0.2656247 -1.394531,0.2656247 -0.898438,0 -1.566406,-0.3749997 Q 65.840233,9.34375 65.504295,8.6445313 65.168358,7.9414062 65.168358,7.1171875 q 0,-0.8945313 0.375,-1.5898438 0.375,-0.6953125 1.097656,-1.0664062 0.550781,-0.2851563 1.371094,-0.2851563 1.066406,0 1.664062,0.4492188 0.601563,0.4453125 0.773438,1.234375 L 69.30117,6.0742187 Q 69.180077,5.6523437 68.844139,5.4101562 68.512108,5.1640625 68.012108,5.1640625 q -0.757813,0 -1.207031,0.4804687 -0.445313,0.4804688 -0.445313,1.4257813 0,1.0195313 0.453125,1.53125 0.453125,0.5078125 1.1875,0.5078125 0.363281,0 0.726563,-0.140625 0.367187,-0.1445312 0.628906,-0.3476562 V 7.8945312 Z M 76.754295,10 h -1.257812 l -0.5,-1.3007812 H 72.70742 L 72.234764,10 H 71.008202 L 73.23867,4.2734375 h 1.222657 z m -2.128906,-2.265625 -0.789062,-2.125 -0.773438,2.125 z M 80.105858,10 78.73867,4.2734375 h 1.183594 l 0.863281,3.9335938 1.046875,-3.9335938 h 1.375 l 1.003907,4 0.878906,-4 h 1.164062 L 84.86367,10 H 83.637108 L 82.496483,5.71875 81.359764,10 Z m 6.503906,-2.828125 q 0,-0.875 0.261719,-1.46875 0.195312,-0.4375 0.53125,-0.7851563 0.339844,-0.3476562 0.742187,-0.515625 0.535157,-0.2265625 1.234375,-0.2265625 1.265625,0 2.023438,0.7851563 0.761719,0.7851562 0.761719,2.1835937 0,1.3867188 -0.753907,2.1718751 -0.753906,0.7812497 -2.015625,0.7812497 -1.277343,0 -2.03125,-0.7773435 -0.753906,-0.78125 -0.753906,-2.1484375 z m 1.191406,-0.039063 q 0,0.9726563 0.449219,1.4765625 0.449219,0.5 1.140625,0.5 0.691406,0 1.132813,-0.4960937 0.445312,-0.5 0.445312,-1.4960938 0,-0.984375 -0.433594,-1.46875 -0.429687,-0.484375 -1.144531,-0.484375 -0.714844,0 -1.152344,0.4921875 -0.4375,0.4882812 -0.4375,1.4765625 z M 93.070702,10 V 4.2734375 h 2.433593 q 0.917969,0 1.332032,0.15625 0.417968,0.1523437 0.667968,0.546875 0.25,0.3945312 0.25,0.9023437 0,0.6445313 -0.378906,1.0664063 -0.378906,0.4179687 -1.132812,0.5273437 0.375,0.21875 0.617187,0.4804688 0.246094,0.2617188 0.660156,0.9296875 L 98.219139,10 H 96.836327 L 96.000389,8.7539063 Q 95.555077,8.0859375 95.391014,7.9140625 95.226952,7.7382812 95.043358,7.6757812 94.859764,7.609375 94.461327,7.609375 H 94.226952 V 10 Z m 1.15625,-3.3046875 h 0.855468 q 0.832032,0 1.039063,-0.070312 0.207031,-0.070312 0.324219,-0.2421875 0.117187,-0.171875 0.117187,-0.4296875 0,-0.2890625 -0.15625,-0.4648438 -0.152344,-0.1796875 -0.433594,-0.2265625 -0.140625,-0.019531 -0.84375,-0.019531 h -0.902343 z m 4.613281,-2.421875 h 2.113277 q 0.71485,0 1.08985,0.109375 0.5039,0.1484375 0.86328,0.5273437 0.35937,0.3789063 0.54687,0.9296875 0.1875,0.546875 0.1875,1.3515625 0,0.7070313 -0.17578,1.2187501 -0.21484,0.625 -0.61328,1.0117187 -0.30078,0.2929688 -0.8125,0.4570313 Q 101.65664,10 101.01601,10 h -2.175777 z m 1.15625,0.96875 v 3.7929688 h 0.863277 q 0.48438,0 0.69922,-0.054687 0.28125,-0.070312 0.46485,-0.2382813 0.1875,-0.1679687 0.30468,-0.5507812 0.11719,-0.3867188 0.11719,-1.0507813 0,-0.6640625 -0.11719,-1.0195313 -0.11718,-0.3554687 -0.32812,-0.5546875 -0.21094,-0.1992187 -0.53516,-0.2695312 -0.24218,-0.054687 -0.94922,-0.054687 z M 109.5082,7.8945312 V 6.9296875 h 2.49219 v 2.28125 q -0.36328,0.3515625 -1.05469,0.6210938 -0.6875,0.2656247 -1.39453,0.2656247 -0.89844,0 -1.56641,-0.3749997 -0.66796,-0.3789063 -1.0039,-1.078125 -0.33594,-0.7031251 -0.33594,-1.5273438 0,-0.8945313 0.375,-1.5898438 0.375,-0.6953125 1.09766,-1.0664062 0.55078,-0.2851563 1.37109,-0.2851563 1.06641,0 1.66406,0.4492188 0.60157,0.4453125 0.77344,1.234375 l -1.14844,0.2148437 q -0.12109,-0.421875 -0.45703,-0.6640625 -0.33203,-0.2460937 -0.83203,-0.2460937 -0.75781,0 -1.20703,0.4804687 -0.44531,0.4804688 -0.44531,1.4257813 0,1.0195313 0.45312,1.53125 0.45313,0.5078125 1.1875,0.5078125 0.36328,0 0.72656,-0.140625 0.36719,-0.1445312 0.62891,-0.3476562 V 7.8945312 Z M 113.0668,10 V 4.2734375 h 4.24609 v 0.96875 h -3.08984 v 1.2695312 h 2.875 v 0.9648438 h -2.875 v 1.5585938 h 3.19921 V 10 Z m 5.34765,0 V 4.2734375 h 1.125 l 2.34375,3.8242188 V 4.2734375 h 1.07422 V 10 h -1.16016 L 119.48867,6.265625 V 10 Z m 5.76563,0 V 4.2734375 h 4.24609 v 0.96875 h -3.08984 v 1.2695312 h 2.875 v 0.9648438 h -2.875 v 1.5585938 h 3.19922 V 10 Z m 5.33984,0 V 4.2734375 h 2.43359 q 0.91797,0 1.33204,0.15625 0.41796,0.1523437 0.66796,0.546875 0.25,0.3945312 0.25,0.9023437 0,0.6445313 -0.3789,1.0664063 -0.37891,0.4179687 -1.13281,0.5273437 0.375,0.21875 0.61718,0.4804688 0.2461,0.2617188 0.66016,0.9296875 L 134.66836,10 h -1.38281 l -0.83594,-1.2460937 q -0.44531,-0.6679688 -0.60938,-0.8398438 -0.16406,-0.1757813 -0.34765,-0.2382813 -0.1836,-0.066406 -0.58203,-0.066406 h -0.23438 V 10 Z m 1.15625,-3.3046875 h 0.85547 q 0.83203,0 1.03906,-0.070312 0.20703,-0.070312 0.32422,-0.2421875 0.11719,-0.171875 0.11719,-0.4296875 0,-0.2890625 -0.15625,-0.4648438 -0.15235,-0.1796875 -0.4336,-0.2265625 -0.14062,-0.019531 -0.84375,-0.019531 h -0.90234 z M 140.45742,10 h -1.25781 l -0.5,-1.3007812 h -2.28906 L 135.93789,10 h -1.22656 l 2.23047,-5.7265625 h 1.22265 z m -2.12891,-2.265625 -0.78906,-2.125 -0.77344,2.125 z M 141.76601,10 V 5.2421875 h -1.69921 v -0.96875 h 4.55078 v 0.96875 h -1.69532 V 10 Z m 3.21875,-2.828125 q 0,-0.875 0.26172,-1.46875 0.19532,-0.4375 0.53125,-0.7851563 0.33985,-0.3476562 0.74219,-0.515625 0.53516,-0.2265625 1.23438,-0.2265625 1.26562,0 2.02343,0.7851563 0.76172,0.7851562 0.76172,2.1835937 0,1.3867188 -0.7539,2.1718751 -0.75391,0.7812497 -2.01563,0.7812497 -1.27734,0 -2.03125,-0.7773435 -0.75391,-0.78125 -0.75391,-2.1484375 z m 1.19141,-0.039063 q 0,0.9726563 0.44922,1.4765625 0.44922,0.5 1.14062,0.5 0.69141,0 1.13282,-0.4960937 0.44531,-0.5 0.44531,-1.4960938 0,-0.984375 -0.43359,-1.46875 -0.42969,-0.484375 -1.14454,-0.484375 -0.71484,0 -1.15234,0.4921875 -0.4375,0.4882812 -0.4375,1.4765625 z M 151.4457,10 V 4.2734375 h 2.4336 q 0.91796,0 1.33203,0.15625 0.41797,0.1523437 0.66797,0.546875 0.25,0.3945312 0.25,0.9023437 0,0.6445313 -0.37891,1.0664063 -0.37891,0.4179687 -1.13281,0.5273437 0.375,0.21875 0.61718,0.4804688 0.2461,0.2617188 0.66016,0.9296875 L 156.59414,10 h -1.38281 l -0.83594,-1.2460937 q -0.44531,-0.6679688 -0.60938,-0.8398438 -0.16406,-0.1757813 -0.34765,-0.2382813 -0.1836,-0.066406 -0.58203,-0.066406 h -0.23438 V 10 Z m 1.15625,-3.3046875 h 0.85547 q 0.83203,0 1.03906,-0.070312 0.20703,-0.070312 0.32422,-0.2421875 0.11719,-0.171875 0.11719,-0.4296875 0,-0.2890625 -0.15625,-0.4648438 -0.15234,-0.1796875 -0.43359,-0.2265625 -0.14063,-0.019531 -0.84375,-0.019531 h -0.90235 z"
   id="text1"
   style="font-weight:bold;font-size:8px;font-family:Arial, Helvetica, sans-serif;text-anchor:middle"
   aria-label="BOOGA WORD GENERATOR" />
<!-- Divider between Top (Global) and Bottom (Word Specific) sections -->
<line
   x1="5"
   y1="75"
   x2="198.2"
   y2="75"
   stroke="#555555"
   stroke-width="0.5"
   id="line1" />
<!-- TOP SECTION LABELS - REGROUPED -->
<!-- Area 1: Clock Control (Rate Knob y=30, Mode Switch y=55) -->

\  <path
   d="m 35.460937,28.996094 0.378907,0.0957 q -0.119141,0.466797 -0.429688,0.71289 -0.308594,0.244141 -0.755859,0.244141 -0.462891,0 -0.753906,-0.1875 -0.289063,-0.189453 -0.441407,-0.546875 -0.15039,-0.357422 -0.15039,-0.767578 0,-0.447266 0.169922,-0.779297 0.171875,-0.333984 0.486328,-0.505859 0.316406,-0.173828 0.695312,-0.173828 0.429688,0 0.722656,0.21875 0.292969,0.21875 0.408204,0.615234 l -0.373047,0.08789 q -0.09961,-0.3125 -0.289063,-0.455079 -0.189453,-0.142578 -0.476562,-0.142578 -0.330078,0 -0.552735,0.158203 -0.220703,0.158204 -0.310547,0.425782 -0.08984,0.265625 -0.08984,0.548828 0,0.365234 0.105468,0.638672 0.107422,0.271484 0.332032,0.40625 0.224609,0.134765 0.486328,0.134765 0.318359,0 0.539062,-0.183593 0.220703,-0.183594 0.298828,-0.544922 z M 36.291016,30 v -2.863281 h 0.378906 v 2.52539 h 1.410156 V 30 Z m 2.125,-1.394531 q 0,-0.712891 0.382812,-1.115235 0.382813,-0.404297 0.988281,-0.404297 0.396485,0 0.714844,0.189454 0.318359,0.189453 0.484375,0.529296 0.167969,0.337891 0.167969,0.767579 0,0.435546 -0.175781,0.779296 -0.175782,0.34375 -0.498047,0.521485 -0.322266,0.175781 -0.695313,0.175781 -0.404297,0 -0.722656,-0.195312 -0.318359,-0.195313 -0.482422,-0.533204 -0.164062,-0.33789 -0.164062,-0.714843 z m 0.390625,0.0059 q 0,0.517578 0.277343,0.816406 0.279297,0.296875 0.699219,0.296875 0.427734,0 0.703125,-0.300781 0.277344,-0.300781 0.277344,-0.853516 0,-0.349609 -0.119141,-0.609375 -0.117187,-0.261718 -0.345703,-0.404296 -0.226562,-0.144532 -0.509766,-0.144532 -0.402343,0 -0.693359,0.277344 -0.289062,0.275391 -0.289062,0.921875 z m 4.878906,0.384766 0.378906,0.0957 q -0.119141,0.466797 -0.429687,0.71289 -0.308594,0.244141 -0.75586,0.244141 -0.46289,0 -0.753906,-0.1875 -0.289063,-0.189453 -0.441406,-0.546875 -0.150391,-0.357422 -0.150391,-0.767578 0,-0.447266 0.169922,-0.779297 0.171875,-0.333984 0.486328,-0.505859 0.316406,-0.173828 0.695313,-0.173828 0.429687,0 0.722656,0.21875 0.292969,0.21875 0.408203,0.615234 l -0.373047,0.08789 q -0.09961,-0.3125 -0.289062,-0.455079 -0.189454,-0.142578 -0.476563,-0.142578 -0.330078,0 -0.552734,0.158203 -0.220703,0.158204 -0.310547,0.425782 -0.08984,0.265625 -0.08984,0.548828 0,0.365234 0.105469,0.638672 0.107422,0.271484 0.332031,0.40625 0.224609,0.134765 0.486328,0.134765 0.31836,0 0.539063,-0.183593 0.220703,-0.183594 0.298828,-0.544922 z M 44.515625,30 v -2.863281 h 0.378906 v 1.419922 l 1.421875,-1.419922 h 0.513672 L 45.628906,28.296875 46.882812,30 h -0.5 l -1.019531,-1.449219 -0.46875,0.457031 V 30 Z"
   id="text2"
   style="font-size:4px;font-family:Arial, Helvetica, sans-serif;text-anchor:middle"
   aria-label="CLOCK" />
<!-- Area 2: Sequence Control (Sgl Cycle Button y=30, Sgl Trig In y=30, Run Mode Switch y=55) -->
<path
   d="m 20.619141,49.080078 0.357421,-0.03125 q 0.02539,0.214844 0.117188,0.353516 0.09375,0.136718 0.289062,0.222656 0.195313,0.08398 0.439454,0.08398 0.216796,0 0.382812,-0.06445 0.166016,-0.06445 0.246094,-0.175781 0.08203,-0.113281 0.08203,-0.246094 0,-0.134765 -0.07813,-0.234375 -0.07813,-0.101562 -0.257812,-0.169922 -0.115235,-0.04492 -0.509766,-0.138672 -0.394531,-0.0957 -0.552734,-0.179687 -0.205079,-0.107422 -0.306641,-0.265625 -0.09961,-0.160156 -0.09961,-0.357422 0,-0.216797 0.123046,-0.404297 0.123047,-0.189453 0.359375,-0.287109 0.236329,-0.09766 0.525391,-0.09766 0.318359,0 0.560547,0.103515 0.244141,0.101563 0.375,0.300781 0.130859,0.199219 0.140625,0.451172 l -0.363281,0.02734 q -0.0293,-0.271484 -0.199219,-0.410156 -0.167969,-0.138672 -0.498047,-0.138672 -0.34375,0 -0.501953,0.126953 -0.15625,0.125 -0.15625,0.302734 0,0.154297 0.111328,0.253907 0.109375,0.09961 0.570313,0.205078 0.46289,0.103515 0.634765,0.18164 0.25,0.115235 0.369141,0.292969 0.11914,0.175781 0.11914,0.40625 0,0.228516 -0.130859,0.431641 -0.130859,0.201172 -0.376953,0.314453 -0.244141,0.111328 -0.550781,0.111328 -0.388672,0 -0.652344,-0.113281 -0.261719,-0.113281 -0.412109,-0.339844 -0.148438,-0.228516 -0.15625,-0.515625 z M 23.480469,50 v -2.863281 h 0.378906 V 50 Z m 1.042968,0 v -2.863281 h 0.388672 l 1.503907,2.248047 v -2.248047 h 0.363281 V 50 H 26.390625 L 24.886719,47.75 V 50 Z m 4.232422,-1.123047 v -0.335937 l 1.212891,-0.002 v 1.0625 q -0.279297,0.222657 -0.576172,0.335938 -0.296875,0.111328 -0.609375,0.111328 -0.421875,0 -0.767578,-0.179687 -0.34375,-0.181641 -0.519531,-0.523438 -0.175782,-0.341797 -0.175782,-0.763672 0,-0.417969 0.173829,-0.779297 0.175781,-0.363281 0.503906,-0.539062 0.328125,-0.175781 0.755859,-0.175781 0.310547,0 0.560547,0.101562 0.251953,0.09961 0.394531,0.279297 0.142578,0.179687 0.216797,0.46875 l -0.341797,0.09375 q -0.06445,-0.21875 -0.160156,-0.34375 -0.0957,-0.125 -0.273437,-0.199219 -0.177735,-0.07617 -0.394532,-0.07617 -0.259765,0 -0.449218,0.08008 -0.189454,0.07813 -0.306641,0.207032 -0.115234,0.128906 -0.179688,0.283203 -0.109375,0.265625 -0.109375,0.576172 0,0.382812 0.13086,0.640625 0.132812,0.257812 0.384765,0.382812 0.251954,0.125 0.535157,0.125 0.246093,0 0.480468,-0.09375 0.234375,-0.0957 0.355469,-0.203125 V 48.876953 Z M 30.511719,50 v -2.863281 h 0.378906 v 2.52539 h 1.410156 V 50 Z m 2.248047,0 v -2.863281 h 2.070312 v 0.33789 h -1.691406 v 0.876953 h 1.583984 V 48.6875 h -1.583984 v 0.974609 h 1.757812 V 50 Z m 5.814453,-1.003906 0.378906,0.0957 q -0.119141,0.466797 -0.429688,0.71289 -0.308593,0.244141 -0.755859,0.244141 -0.462891,0 -0.753906,-0.1875 -0.289063,-0.189453 -0.441406,-0.546875 -0.150391,-0.357422 -0.150391,-0.767578 0,-0.447266 0.169922,-0.779297 0.171875,-0.333984 0.486328,-0.505859 0.316406,-0.173828 0.695312,-0.173828 0.429688,0 0.722657,0.21875 0.292968,0.21875 0.408203,0.615234 l -0.373047,0.08789 q -0.09961,-0.3125 -0.289063,-0.455079 -0.189453,-0.142578 -0.476562,-0.142578 -0.330078,0 -0.552734,0.158203 -0.220704,0.158204 -0.310547,0.425782 -0.08984,0.265625 -0.08984,0.548828 0,0.365234 0.105469,0.638672 0.107422,0.271484 0.332031,0.40625 0.224609,0.134765 0.486328,0.134765 0.318359,0 0.539063,-0.183593 0.220703,-0.183594 0.298828,-0.544922 z M 40.226562,50 v -1.212891 l -1.103515,-1.65039 h 0.460937 L 40.148437,48 q 0.15625,0.242187 0.291016,0.484375 0.128906,-0.224609 0.3125,-0.505859 l 0.554688,-0.841797 h 0.441406 l -1.142578,1.65039 V 50 Z m 3.904297,-1.003906 0.378907,0.0957 q -0.119141,0.466797 -0.429688,0.71289 -0.308594,0.244141 -0.755859,0.244141 -0.462891,0 -0.753907,-0.1875 -0.289062,-0.189453 -0.441406,-0.546875 -0.15039,-0.357422 -0.15039,-0.767578 0,-0.447266 0.169921,-0.779297 0.171875,-0.333984 0.486329,-0.505859 0.316406,-0.173828 0.695312,-0.173828 0.429688,0 0.722656,0.21875 0.292969,0.21875 0.408203,0.615234 l -0.373046,0.08789 q -0.09961,-0.3125 -0.289063,-0.455079 -0.189453,-0.142578 -0.476562,-0.142578 -0.330079,0 -0.552735,0.158203 -0.220703,0.158204 -0.310547,0.425782 -0.08984,0.265625 -0.08984,0.548828 0,0.365234 0.105468,0.638672 0.107422,0.271484 0.332032,0.40625 0.224609,0.134765 0.486328,0.134765 0.318359,0 0.539062,-0.183593 0.220703,-0.183594 0.298828,-0.544922 z M 44.960937,50 v -2.863281 h 0.378907 v 2.52539 H 46.75 V 50 Z m 2.248047,0 v -2.863281 h 2.070313 v 0.33789 h -1.691406 v 0.876953 h 1.583984 V 48.6875 h -1.583984 v 0.974609 h 1.757812 V 50 Z"
   id="text3"
   style="font-size:4px;font-family:Arial, Helvetica, sans-serif;text-anchor:middle"
   aria-label="SINGLE CYCLE" />
<!-- Area 3: Word Param Control (Word Len Knob y=30, Len CV y=30, Mode Switch y=55, Mode Flip Trig y=55) -->
<path
   d="m 102.03027,30 -0.75976,-2.863281 h 0.38867 l 0.43555,1.876953 q 0.0703,0.294922 0.12109,0.585937 0.10938,-0.458984 0.12891,-0.529297 l 0.54492,-1.933593 h 0.45703 l 0.41016,1.449218 q 0.15429,0.539063 0.22265,1.013672 0.0547,-0.271484 0.14258,-0.623047 l 0.44922,-1.839843 h 0.38086 L 104.16699,30 h -0.36523 l -0.60352,-2.181641 q -0.0762,-0.273437 -0.0898,-0.335937 -0.0449,0.197265 -0.084,0.335937 L 102.41699,30 Z m 3.16016,-1.394531 q 0,-0.712891 0.38281,-1.115235 0.38281,-0.404297 0.98828,-0.404297 0.39649,0 0.71485,0.189454 0.31836,0.189453 0.48437,0.529296 0.16797,0.337891 0.16797,0.767579 0,0.435546 -0.17578,0.779296 -0.17578,0.34375 -0.49805,0.521485 -0.32226,0.175781 -0.69531,0.175781 -0.4043,0 -0.72266,-0.195312 -0.31836,-0.195313 -0.48242,-0.533204 -0.16406,-0.33789 -0.16406,-0.714843 z m 0.39062,0.0059 q 0,0.517578 0.27735,0.816406 0.2793,0.296875 0.69922,0.296875 0.42773,0 0.70312,-0.300781 0.27735,-0.300781 0.27735,-0.853516 0,-0.349609 -0.11914,-0.609375 -0.11719,-0.261718 -0.34571,-0.404296 -0.22656,-0.144532 -0.50976,-0.144532 -0.40235,0 -0.69336,0.277344 -0.28907,0.275391 -0.28907,0.921875 z M 108.42285,30 v -2.863281 h 1.26953 q 0.38282,0 0.58203,0.07813 0.19922,0.07617 0.31836,0.271484 0.11914,0.195313 0.11914,0.431641 0,0.304687 -0.19726,0.513672 -0.19727,0.208984 -0.60938,0.265625 0.15039,0.07227 0.22852,0.142578 0.16601,0.152343 0.31445,0.380859 L 110.94629,30 h -0.47656 l -0.37891,-0.595703 q -0.16602,-0.257813 -0.27344,-0.394531 -0.10742,-0.136719 -0.19336,-0.191407 -0.084,-0.05469 -0.17187,-0.07617 -0.0645,-0.01367 -0.21094,-0.01367 h -0.43945 V 30 Z m 0.37891,-1.599609 h 0.81445 q 0.25977,0 0.40625,-0.05273 0.14649,-0.05469 0.22266,-0.171875 0.0762,-0.11914 0.0762,-0.257812 0,-0.203125 -0.14844,-0.333985 -0.14648,-0.130859 -0.46484,-0.130859 h -0.90625 z M 111.30566,30 v -2.863281 h 0.98633 q 0.33399,0 0.50977,0.04102 0.24609,0.05664 0.41992,0.205078 0.22656,0.191407 0.33789,0.490235 0.11328,0.296875 0.11328,0.679687 0,0.326172 -0.0762,0.578125 -0.0762,0.251953 -0.19531,0.417969 -0.11914,0.164063 -0.26172,0.259766 -0.14063,0.09375 -0.3418,0.142578 Q 112.59863,30 112.33887,30 Z m 0.37891,-0.337891 h 0.61133 q 0.2832,0 0.44336,-0.05273 0.16211,-0.05273 0.25781,-0.148438 0.13477,-0.134765 0.20898,-0.361328 0.0762,-0.228515 0.0762,-0.552734 0,-0.449219 -0.14844,-0.689453 -0.14649,-0.242188 -0.35742,-0.324219 -0.15235,-0.05859 -0.49024,-0.05859 h -0.60156 z M 115.29004,30 v -2.863281 h 0.37891 v 2.52539 h 1.41015 V 30 Z m 2.24805,0 v -2.863281 h 2.07031 v 0.33789 h -1.69141 v 0.876953 h 1.58399 V 28.6875 h -1.58399 v 0.974609 h 1.75781 V 30 Z m 2.65625,0 v -2.863281 h 0.38867 l 1.5039,2.248047 v -2.248047 h 0.36329 V 30 h -0.38868 l -1.5039,-2.25 V 30 Z"
   id="text4"
   style="font-size:4px;font-family:Arial, Helvetica, sans-serif;text-anchor:middle"
   aria-label="WORD LEN" />
<path
   d="m 104.81836,50 h -0.35156 v -2.240234 q -0.12696,0.121093 -0.33399,0.242187 -0.20508,0.121094 -0.36914,0.181641 V 47.84375 q 0.29492,-0.138672 0.51563,-0.335938 0.2207,-0.197265 0.3125,-0.382812 h 0.22656 z m 2.72461,-2.162109 -0.34961,0.02734 q -0.0469,-0.207031 -0.13281,-0.300781 -0.14258,-0.150391 -0.35157,-0.150391 -0.16796,0 -0.29492,0.09375 -0.16601,0.121094 -0.26172,0.353516 -0.0957,0.232422 -0.0996,0.662109 0.12696,-0.193359 0.31055,-0.287109 0.1836,-0.09375 0.38477,-0.09375 0.35156,0 0.59765,0.259766 0.24805,0.257812 0.24805,0.667968 0,0.269532 -0.11719,0.501954 -0.11523,0.230468 -0.31836,0.353515 -0.20312,0.123047 -0.46093,0.123047 -0.43946,0 -0.7168,-0.322266 -0.27734,-0.324218 -0.27734,-1.066406 0,-0.830078 0.30664,-1.207031 0.26757,-0.328125 0.7207,-0.328125 0.33789,0 0.55273,0.189453 0.2168,0.189453 0.25977,0.523438 z m -1.43555,1.234375 q 0,0.18164 0.0762,0.347656 0.0781,0.166015 0.2168,0.253906 0.13867,0.08594 0.29102,0.08594 0.22265,0 0.38281,-0.179688 0.16016,-0.179687 0.16016,-0.488281 0,-0.296875 -0.15821,-0.466797 -0.1582,-0.171875 -0.39844,-0.171875 -0.23828,0 -0.40429,0.171875 -0.16602,0.169922 -0.16602,0.447266 z m 1.66992,0.976562 0.83008,-2.960937 h 0.28125 l -0.82812,2.960937 z m 1.2793,-0.804687 0.35156,-0.04687 q 0.0606,0.298828 0.20508,0.43164 0.14649,0.13086 0.35547,0.13086 0.24805,0 0.41797,-0.171875 0.17187,-0.171875 0.17187,-0.425782 0,-0.242187 -0.1582,-0.398437 -0.1582,-0.158203 -0.40234,-0.158203 -0.0996,0 -0.24805,0.03906 l 0.0391,-0.308594 q 0.0352,0.0039 0.0566,0.0039 0.22461,0 0.4043,-0.117188 0.17969,-0.117187 0.17969,-0.361328 0,-0.193359 -0.13086,-0.320312 -0.13086,-0.126954 -0.33789,-0.126954 -0.20508,0 -0.3418,0.128907 -0.13672,0.128906 -0.17578,0.386718 l -0.35156,-0.0625 q 0.0644,-0.353515 0.29297,-0.546875 0.22851,-0.195312 0.56836,-0.195312 0.23437,0 0.43164,0.101562 0.19726,0.09961 0.30078,0.273438 0.10547,0.173828 0.10547,0.369141 0,0.185546 -0.0996,0.33789 -0.0996,0.152344 -0.29493,0.242188 0.25391,0.05859 0.39454,0.24414 0.14062,0.183594 0.14062,0.460938 0,0.375 -0.27344,0.636719 -0.27343,0.259765 -0.6914,0.259765 -0.37696,0 -0.62696,-0.224609 -0.24804,-0.22461 -0.2832,-0.582031 z m 4.07031,0.417968 V 50 h -1.89257 q -0.004,-0.126953 0.041,-0.244141 0.0723,-0.193359 0.23047,-0.380859 0.16016,-0.1875 0.46094,-0.433594 0.46679,-0.382812 0.63086,-0.605469 0.16406,-0.224609 0.16406,-0.423828 0,-0.208984 -0.15039,-0.351562 -0.14844,-0.144531 -0.38867,-0.144531 -0.25391,0 -0.40625,0.152343 -0.15235,0.152344 -0.1543,0.421875 l -0.36133,-0.03711 q 0.0371,-0.404297 0.2793,-0.615234 0.24219,-0.212891 0.65039,-0.212891 0.41211,0 0.65234,0.228516 0.24024,0.228515 0.24024,0.566406 0,0.171875 -0.0703,0.33789 -0.0703,0.166016 -0.23437,0.34961 -0.16211,0.183594 -0.54102,0.503906 -0.3164,0.265625 -0.40625,0.361328 -0.0898,0.09375 -0.14843,0.189453 z M 114.74219,50 v -2.863281 h 1.07422 q 0.32812,0 0.52539,0.08789 0.19922,0.08594 0.31054,0.267578 0.11329,0.179688 0.11329,0.376954 0,0.183593 -0.0996,0.345703 -0.0996,0.162109 -0.30079,0.261718 0.25977,0.07617 0.39844,0.259766 0.14063,0.183594 0.14063,0.433594 0,0.201172 -0.0859,0.375 -0.084,0.171875 -0.20898,0.265625 -0.125,0.09375 -0.31446,0.142578 Q 116.10742,50 115.83398,50 Z m 0.3789,-1.660156 h 0.61914 q 0.25196,0 0.36133,-0.0332 0.14453,-0.04297 0.2168,-0.142579 0.0742,-0.09961 0.0742,-0.25 0,-0.142578 -0.0684,-0.25 -0.0684,-0.109375 -0.19531,-0.148437 -0.12696,-0.04102 -0.43555,-0.04102 h -0.57227 z m 0,1.322265 h 0.71289 q 0.1836,0 0.25782,-0.01367 0.13086,-0.02344 0.21875,-0.07813 0.0879,-0.05469 0.14453,-0.158203 0.0566,-0.105468 0.0566,-0.242187 0,-0.160156 -0.082,-0.277344 -0.082,-0.119141 -0.22852,-0.166016 -0.14453,-0.04883 -0.41797,-0.04883 h -0.66211 z M 117.49023,50 v -2.863281 h 0.37891 V 50 Z m 1.7754,0 v -2.525391 h -0.94336 v -0.33789 h 2.26953 v 0.33789 h -0.94727 V 50 Z"
   id="text5"
   style="font-size:4px;font-family:Arial, Helvetica, sans-serif;text-anchor:middle"
   aria-label="16/32 BIT" />
<!-- Area 4: PRN Control (PRN Prob Knob y=80, PRN CV y=80) -->
<path
   d="m 21.085937,70 v -2.863281 h 1.080079 q 0.285156,0 0.435546,0.02734 0.210938,0.03516 0.353516,0.134766 0.142578,0.09766 0.228516,0.275391 0.08789,0.177734 0.08789,0.390625 0,0.365234 -0.232422,0.61914 -0.232421,0.251953 -0.839843,0.251953 H 21.464844 V 70 Z m 0.378907,-1.501953 h 0.740234 q 0.367188,0 0.521484,-0.136719 0.154297,-0.136719 0.154297,-0.384766 0,-0.179687 -0.0918,-0.30664 -0.08984,-0.128906 -0.238281,-0.169922 -0.0957,-0.02539 -0.353515,-0.02539 H 21.464844 Z M 23.759766,70 v -2.863281 h 1.269531 q 0.382812,0 0.582031,0.07813 0.199219,0.07617 0.318359,0.271484 0.119141,0.195313 0.119141,0.431641 0,0.304687 -0.197266,0.513672 -0.197265,0.208984 -0.609375,0.265625 0.150391,0.07227 0.228516,0.142578 0.166016,0.152343 0.314453,0.380859 L 26.283203,70 h -0.476562 l -0.378907,-0.595703 q -0.166015,-0.257813 -0.273437,-0.394531 -0.107422,-0.136719 -0.19336,-0.191407 -0.08398,-0.05469 -0.171875,-0.07617 -0.06445,-0.01367 -0.210937,-0.01367 H 24.138672 V 70 Z m 0.378906,-1.599609 h 0.814453 q 0.259766,0 0.40625,-0.05273 0.146484,-0.05469 0.222656,-0.171875 0.07617,-0.11914 0.07617,-0.257812 0,-0.203125 -0.148437,-0.333985 -0.146485,-0.130859 -0.464844,-0.130859 h -0.90625 z m 2.5,1.599609 v -2.863281 h 0.388672 l 1.503906,2.248047 v -2.248047 h 0.363281 V 70 H 28.505859 L 27.001953,67.75 V 70 Z"
   id="text6"
   style="font-size:4px;font-family:Arial, Helvetica, sans-serif;text-anchor:middle"
   aria-label="PRN" />
<!-- Area 5: General Inputs (Clock In y=80, Reset In y=80) -->
<path
   d="m 60.905273,68.996094 0.378907,0.0957 q -0.119141,0.466797 -0.429688,0.71289 -0.308594,0.244141 -0.755859,0.244141 -0.462891,0 -0.753906,-0.1875 -0.289063,-0.189453 -0.441407,-0.546875 -0.15039,-0.357422 -0.15039,-0.767578 0,-0.447266 0.169922,-0.779297 0.171875,-0.333984 0.486328,-0.505859 0.316406,-0.173828 0.695312,-0.173828 0.429688,0 0.722656,0.21875 0.292969,0.21875 0.408204,0.615234 l -0.373047,0.08789 q -0.09961,-0.3125 -0.289063,-0.455079 -0.189453,-0.142578 -0.476562,-0.142578 -0.330078,0 -0.552735,0.158203 -0.220703,0.158204 -0.310547,0.425782 -0.08984,0.265625 -0.08984,0.548828 0,0.365234 0.105468,0.638672 0.107422,0.271484 0.332032,0.40625 0.224609,0.134765 0.486328,0.134765 0.318359,0 0.539062,-0.183593 0.220703,-0.183594 0.298828,-0.544922 z M 61.735352,70 v -2.863281 h 0.378906 v 2.52539 h 1.410156 V 70 Z m 2.224609,0 v -2.863281 h 0.378906 v 1.419922 l 1.421875,-1.419922 h 0.513672 L 65.073242,68.296875 66.327148,70 h -0.5 l -1.019531,-1.449219 -0.46875,0.457031 V 70 Z m 3.859375,0 v -2.863281 h 0.378906 V 70 Z m 1.042969,0 v -2.863281 h 0.388672 l 1.503906,2.248047 v -2.248047 h 0.363281 V 70 H 70.729492 L 69.225586,67.75 V 70 Z"
   id="text7"
   style="font-size:4px;font-family:Arial, Helvetica, sans-serif;text-anchor:middle"
   aria-label="CLK IN" />
<path
   d="m 78.646484,70 v -2.863281 h 1.269532 q 0.382812,0 0.582031,0.07813 0.199219,0.07617 0.318359,0.271484 0.119141,0.195313 0.119141,0.431641 0,0.304687 -0.197266,0.513672 -0.197265,0.208984 -0.609375,0.265625 0.150391,0.07227 0.228516,0.142578 0.166015,0.152343 0.314453,0.380859 L 81.169922,70 h -0.476563 l -0.378906,-0.595703 q -0.166016,-0.257813 -0.273437,-0.394531 -0.107422,-0.136719 -0.19336,-0.191407 -0.08398,-0.05469 -0.171875,-0.07617 -0.06445,-0.01367 -0.210937,-0.01367 H 79.025391 V 70 Z m 0.378907,-1.599609 h 0.814453 q 0.259765,0 0.40625,-0.05273 0.146484,-0.05469 0.222656,-0.171875 0.07617,-0.11914 0.07617,-0.257812 0,-0.203125 -0.148438,-0.333985 Q 80.25,67.453125 79.931641,67.453125 h -0.90625 z M 81.537109,70 v -2.863281 h 2.070313 v 0.33789 h -1.691406 v 0.876953 H 83.5 V 68.6875 h -1.583984 v 0.974609 h 1.757812 V 70 Z m 2.53125,-0.919922 0.357422,-0.03125 q 0.02539,0.214844 0.117188,0.353516 0.09375,0.136718 0.289062,0.222656 0.195313,0.08398 0.439453,0.08398 0.216797,0 0.382813,-0.06445 0.166015,-0.06445 0.246094,-0.175781 0.08203,-0.113281 0.08203,-0.246094 0,-0.134765 -0.07813,-0.234375 -0.07813,-0.101562 -0.257813,-0.169922 -0.115234,-0.04492 -0.509765,-0.138672 -0.394532,-0.0957 -0.552735,-0.179687 -0.205078,-0.107422 -0.30664,-0.265625 -0.09961,-0.160156 -0.09961,-0.357422 0,-0.216797 0.123047,-0.404297 0.123047,-0.189453 0.359375,-0.287109 0.236328,-0.09766 0.525391,-0.09766 0.318359,0 0.560547,0.103515 0.24414,0.101563 0.375,0.300781 0.130859,0.199219 0.140625,0.451172 l -0.363282,0.02734 q -0.0293,-0.271484 -0.199218,-0.410156 -0.167969,-0.138672 -0.498047,-0.138672 -0.34375,0 -0.501953,0.126953 -0.15625,0.125 -0.15625,0.302734 0,0.154297 0.111328,0.253907 0.109375,0.09961 0.570312,0.205078 0.462891,0.103515 0.634766,0.18164 0.25,0.115235 0.369141,0.292969 0.11914,0.175781 0.11914,0.40625 0,0.228516 -0.130859,0.431641 -0.13086,0.201172 -0.376953,0.314453 -0.244141,0.111328 -0.550782,0.111328 -0.388671,0 -0.652343,-0.113281 -0.261719,-0.113281 -0.41211,-0.339844 -0.148437,-0.228516 -0.15625,-0.515625 z M 86.873047,70 v -2.863281 h 2.070312 v 0.33789 h -1.691406 v 0.876953 h 1.583984 V 68.6875 h -1.583984 v 0.974609 h 1.757813 V 70 Z m 3.388672,0 v -2.525391 h -0.94336 v -0.33789 h 2.269532 v 0.33789 H 90.640625 V 70 Z"
   id="text8"
   style="font-size:4px;font-family:Arial, Helvetica, sans-serif;text-anchor:middle"
   aria-label="RESET" />
<!-- Area 6: General Outputs (Clock Out y=80) -->
<path
   d="m 98.683594,68.996094 0.378906,0.0957 q -0.119141,0.466797 -0.429688,0.71289 -0.308593,0.244141 -0.755859,0.244141 -0.462891,0 -0.753906,-0.1875 -0.289063,-0.189453 -0.441406,-0.546875 -0.150391,-0.357422 -0.150391,-0.767578 0,-0.447266 0.169922,-0.779297 0.171875,-0.333984 0.486328,-0.505859 0.316406,-0.173828 0.695312,-0.173828 0.429688,0 0.722657,0.21875 0.292968,0.21875 0.408203,0.615234 l -0.373047,0.08789 q -0.09961,-0.3125 -0.289063,-0.455079 -0.189453,-0.142578 -0.476562,-0.142578 -0.330078,0 -0.552734,0.158203 -0.220704,0.158204 -0.310547,0.425782 -0.08984,0.265625 -0.08984,0.548828 0,0.365234 0.105469,0.638672 0.107422,0.271484 0.332031,0.40625 0.224609,0.134765 0.486328,0.134765 0.318359,0 0.539063,-0.183593 0.220703,-0.183594 0.298828,-0.544922 z M 99.513672,70 v -2.863281 h 0.378906 v 2.52539 h 1.410152 V 70 Z m 2.224608,0 v -2.863281 h 0.37891 v 1.419922 l 1.42187,-1.419922 h 0.51367 L 102.85156,68.296875 104.10547,70 h -0.5 l -1.01953,-1.449219 -0.46875,0.457031 V 70 Z m 3.67969,-1.394531 q 0,-0.712891 0.38281,-1.115235 0.38281,-0.404297 0.98828,-0.404297 0.39649,0 0.71485,0.189454 0.31836,0.189453 0.48437,0.529296 0.16797,0.337891 0.16797,0.767579 0,0.435546 -0.17578,0.779296 -0.17578,0.34375 -0.49805,0.521485 -0.32226,0.175781 -0.69531,0.175781 -0.4043,0 -0.72266,-0.195312 -0.31836,-0.195313 -0.48242,-0.533204 -0.16406,-0.33789 -0.16406,-0.714843 z m 0.39062,0.0059 q 0,0.517578 0.27735,0.816406 0.27929,0.296875 0.69922,0.296875 0.42773,0 0.70312,-0.300781 0.27735,-0.300781 0.27735,-0.853516 0,-0.349609 -0.11915,-0.609375 -0.11718,-0.261718 -0.3457,-0.404296 -0.22656,-0.144532 -0.50976,-0.144532 -0.40235,0 -0.69336,0.277344 -0.28907,0.275391 -0.28907,0.921875 z m 4.71485,-1.474609 h 0.3789 v 1.654297 q 0,0.43164 -0.0977,0.685546 -0.0977,0.253907 -0.35352,0.414063 -0.2539,0.158203 -0.66797,0.158203 -0.40234,0 -0.6582,-0.138672 -0.25586,-0.138672 -0.36523,-0.40039 -0.10938,-0.263672 -0.10938,-0.71875 v -1.654297 h 0.37891 v 1.652343 q 0,0.373047 0.0684,0.550782 0.0703,0.175781 0.23828,0.271484 0.16992,0.0957 0.41406,0.0957 0.41797,0 0.5957,-0.189453 0.17774,-0.189453 0.17774,-0.728516 z M 112.26172,70 v -2.525391 h -0.94336 v -0.33789 h 2.26953 v 0.33789 h -0.94726 V 70 Z"
   id="text9"
   style="font-size:4px;font-family:Arial, Helvetica, sans-serif;text-anchor:middle"
   aria-label="CLK OUT" />
<path
   d="m 115.91992,70 v -2.863281 h 1.93164 v 0.33789 h -1.55273 v 0.886719 h 1.34375 v 0.337891 h -1.34375 V 70 Z m 2.48828,0 v -2.863281 h 0.37891 V 70 Z m 1.05274,0 v -2.863281 h 1.26953 q 0.38281,0 0.58203,0.07813 0.19922,0.07617 0.31836,0.271484 0.11914,0.195313 0.11914,0.431641 0,0.304687 -0.19727,0.513672 -0.19726,0.208984 -0.60937,0.265625 0.15039,0.07227 0.22852,0.142578 0.16601,0.152343 0.31445,0.380859 L 121.98438,70 h -0.47657 l -0.3789,-0.595703 q -0.16602,-0.257813 -0.27344,-0.394531 -0.10742,-0.136719 -0.19336,-0.191407 -0.084,-0.05469 -0.17188,-0.07617 -0.0644,-0.01367 -0.21093,-0.01367 h -0.43946 V 70 Z m 0.3789,-1.599609 h 0.81446 q 0.25976,0 0.40625,-0.05273 0.14648,-0.05469 0.22265,-0.171875 0.0762,-0.11914 0.0762,-0.257812 0,-0.203125 -0.14844,-0.333985 -0.14649,-0.130859 -0.46485,-0.130859 h -0.90625 z m 2.375,0.679687 0.35743,-0.03125 q 0.0254,0.214844 0.11718,0.353516 0.0937,0.136718 0.28907,0.222656 0.19531,0.08398 0.43945,0.08398 0.2168,0 0.38281,-0.06445 0.16602,-0.06445 0.2461,-0.175781 0.082,-0.113281 0.082,-0.246094 0,-0.134765 -0.0781,-0.234375 -0.0781,-0.101562 -0.25781,-0.169922 -0.11524,-0.04492 -0.50977,-0.138672 -0.39453,-0.0957 -0.55273,-0.179687 -0.20508,-0.107422 -0.30664,-0.265625 -0.0996,-0.160156 -0.0996,-0.357422 0,-0.216797 0.12305,-0.404297 0.12304,-0.189453 0.35937,-0.287109 0.23633,-0.09766 0.52539,-0.09766 0.31836,0 0.56055,0.103515 0.24414,0.101563 0.375,0.300781 0.13086,0.199219 0.14062,0.451172 l -0.36328,0.02734 q -0.0293,-0.271484 -0.19922,-0.410156 -0.16797,-0.138672 -0.49804,-0.138672 -0.34375,0 -0.50196,0.126953 -0.15625,0.125 -0.15625,0.302734 0,0.154297 0.11133,0.253907 0.10938,0.09961 0.57031,0.205078 0.46289,0.103515 0.63477,0.18164 0.25,0.115235 0.36914,0.292969 0.11914,0.175781 0.11914,0.40625 0,0.228516 -0.13086,0.431641 -0.13086,0.201172 -0.37695,0.314453 -0.24414,0.111328 -0.55078,0.111328 -0.38867,0 -0.65235,-0.113281 -0.26172,-0.113281 -0.41211,-0.339844 -0.14843,-0.228516 -0.15625,-0.515625 z M 125.74023,70 v -2.525391 h -0.94335 v -0.33789 h 2.26953 v 0.33789 h -0.94727 V 70 Z m 2.73829,0 v -2.863281 h 1.07421 q 0.32813,0 0.52539,0.08789 0.19922,0.08594 0.31055,0.267578 0.11328,0.179688 0.11328,0.376954 0,0.183593 -0.0996,0.345703 -0.0996,0.162109 -0.30078,0.261718 0.25977,0.07617 0.39844,0.259766 0.14062,0.183594 0.14062,0.433594 0,0.201172 -0.0859,0.375 -0.084,0.171875 -0.20899,0.265625 -0.125,0.09375 -0.31445,0.142578 Q 129.84375,70 129.57031,70 Z m 0.3789,-1.660156 h 0.61914 q 0.25196,0 0.36133,-0.0332 0.14453,-0.04297 0.2168,-0.142579 0.0742,-0.09961 0.0742,-0.25 0,-0.142578 -0.0684,-0.25 -0.0684,-0.109375 -0.19532,-0.148437 -0.12695,-0.04102 -0.43554,-0.04102 h -0.57227 z m 0,1.322265 h 0.71289 q 0.1836,0 0.25781,-0.01367 0.13086,-0.02344 0.21875,-0.07813 0.0879,-0.05469 0.14454,-0.158203 0.0566,-0.105468 0.0566,-0.242187 0,-0.160156 -0.082,-0.277344 -0.082,-0.119141 -0.22852,-0.166016 -0.14453,-0.04883 -0.41797,-0.04883 h -0.66211 z M 131.22656,70 v -2.863281 h 0.37891 V 70 Z m 1.77539,0 v -2.525391 h -0.94336 v -0.33789 h 2.26953 v 0.33789 h -0.94726 V 70 Z"
   id="text10"
   style="font-size:4px;font-family:Arial, Helvetica, sans-serif;text-anchor:middle"
   aria-label="FIRST BIT" />
<path
   d="m 136.66016,70 v -2.863281 h 0.3789 v 2.52539 h 1.41016 V 70 Z m 1.92578,0 1.09961,-2.863281 h 0.4082 L 141.26562,70 h -0.43164 L 140.5,69.132812 h -1.19727 L 138.98828,70 Z m 0.82617,-1.175781 h 0.9707 l -0.29883,-0.792969 q -0.13671,-0.361328 -0.20312,-0.59375 -0.0547,0.275391 -0.1543,0.546875 z m 2.02734,0.255859 0.35742,-0.03125 q 0.0254,0.214844 0.11719,0.353516 0.0937,0.136718 0.28906,0.222656 0.19532,0.08398 0.43946,0.08398 0.21679,0 0.38281,-0.06445 0.16602,-0.06445 0.24609,-0.175781 0.082,-0.113281 0.082,-0.246094 0,-0.134765 -0.0781,-0.234375 -0.0781,-0.101562 -0.25781,-0.169922 -0.11524,-0.04492 -0.50977,-0.138672 -0.39453,-0.0957 -0.55273,-0.179687 -0.20508,-0.107422 -0.30664,-0.265625 -0.0996,-0.160156 -0.0996,-0.357422 0,-0.216797 0.12304,-0.404297 0.12305,-0.189453 0.35938,-0.287109 0.23633,-0.09766 0.52539,-0.09766 0.31836,0 0.56055,0.103515 0.24414,0.101563 0.375,0.300781 0.13086,0.199219 0.14062,0.451172 l -0.36328,0.02734 q -0.0293,-0.271484 -0.19922,-0.410156 -0.16797,-0.138672 -0.49804,-0.138672 -0.34375,0 -0.50196,0.126953 -0.15625,0.125 -0.15625,0.302734 0,0.154297 0.11133,0.253907 0.10938,0.09961 0.57031,0.205078 0.46289,0.103515 0.63477,0.18164 0.25,0.115235 0.36914,0.292969 0.11914,0.175781 0.11914,0.40625 0,0.228516 -0.13086,0.431641 -0.13086,0.201172 -0.37695,0.314453 -0.24414,0.111328 -0.55078,0.111328 -0.38868,0 -0.65235,-0.113281 -0.26172,-0.113281 -0.41211,-0.339844 -0.14843,-0.228516 -0.15625,-0.515625 z M 144.96484,70 v -2.525391 h -0.94336 v -0.33789 h 2.26954 v 0.33789 h -0.94727 V 70 Z m 2.73828,0 v -2.863281 h 1.07422 q 0.32813,0 0.52539,0.08789 0.19922,0.08594 0.31055,0.267578 0.11328,0.179688 0.11328,0.376954 0,0.183593 -0.0996,0.345703 -0.0996,0.162109 -0.30078,0.261718 0.25977,0.07617 0.39844,0.259766 0.14062,0.183594 0.14062,0.433594 0,0.201172 -0.0859,0.375 -0.084,0.171875 -0.20899,0.265625 -0.125,0.09375 -0.31445,0.142578 Q 149.06836,70 148.79492,70 Z m 0.37891,-1.660156 h 0.61914 q 0.25195,0 0.36133,-0.0332 0.14453,-0.04297 0.2168,-0.142579 0.0742,-0.09961 0.0742,-0.25 0,-0.142578 -0.0684,-0.25 -0.0684,-0.109375 -0.19532,-0.148437 -0.12695,-0.04102 -0.43554,-0.04102 h -0.57227 z m 0,1.322265 h 0.71289 q 0.1836,0 0.25781,-0.01367 0.13086,-0.02344 0.21875,-0.07813 0.0879,-0.05469 0.14454,-0.158203 0.0566,-0.105468 0.0566,-0.242187 0,-0.160156 -0.082,-0.277344 -0.082,-0.119141 -0.22851,-0.166016 -0.14453,-0.04883 -0.41797,-0.04883 h -0.66211 z M 150.45117,70 v -2.863281 h 0.37891 V 70 Z m 1.77539,0 v -2.525391 h -0.94336 v -0.33789 h 2.26953 v 0.33789 h -0.94726 V 70 Z"
   id="text11"
   style="font-size:4px;font-family:Arial, Helvetica, sans-serif;text-anchor:middle"
   aria-label="LAST BIT" />
<!-- Area 7: Main Outputs (Right Column: Word A y=30, B y=50, FIRST y=25, LAST y=45) -->
<path
   d="m 157.79395,23.996094 0.3789,0.0957 q -0.11914,0.466797 -0.42969,0.71289 -0.30859,0.244141 -0.75586,0.244141 -0.46289,0 -0.7539,-0.1875 -0.28906,-0.189453 -0.44141,-0.546875 -0.15039,-0.357422 -0.15039,-0.767578 0,-0.447266 0.16992,-0.779297 0.17188,-0.333984 0.48633,-0.505859 0.31641,-0.173828 0.69531,-0.173828 0.42969,0 0.72266,0.21875 0.29297,0.21875 0.4082,0.615234 l -0.37304,0.08789 q -0.0996,-0.3125 -0.28907,-0.455079 -0.18945,-0.142578 -0.47656,-0.142578 -0.33008,0 -0.55273,0.158203 -0.22071,0.158204 -0.31055,0.425782 -0.0898,0.265625 -0.0898,0.548828 0,0.365234 0.10547,0.638672 0.10742,0.271484 0.33203,0.40625 0.22461,0.134765 0.48632,0.134765 0.31836,0 0.53907,-0.183593 0.2207,-0.183594 0.29883,-0.544922 z M 159.45801,25 158.34863,22.136719 h 0.41016 l 0.74414,2.080078 q 0.0898,0.25 0.15039,0.46875 0.0664,-0.234375 0.1543,-0.46875 l 0.77343,-2.080078 h 0.38672 L 159.84668,25 Z m 2.42578,0 1.09961,-2.863281 h 0.4082 L 164.56348,25 h -0.43164 l -0.33399,-0.867188 h -1.19726 L 162.28613,25 Z m 0.82617,-1.175781 h 0.9707 l -0.29882,-0.792969 q -0.13672,-0.361328 -0.20313,-0.59375 -0.0547,0.275391 -0.1543,0.546875 z"
   id="text12"
   style="font-size:4px;font-family:Arial, Helvetica, sans-serif;text-anchor:middle"
   aria-label="CV A" />
<path
   d="m 157.68359,43.996094 0.37891,0.0957 q -0.11914,0.466797 -0.42969,0.71289 -0.30859,0.244141 -0.75586,0.244141 -0.46289,0 -0.7539,-0.1875 -0.28907,-0.189453 -0.44141,-0.546875 -0.15039,-0.357422 -0.15039,-0.767578 0,-0.447266 0.16992,-0.779297 0.17188,-0.333984 0.48633,-0.505859 0.31641,-0.173828 0.69531,-0.173828 0.42969,0 0.72266,0.21875 0.29297,0.21875 0.4082,0.615234 l -0.37305,0.08789 q -0.0996,-0.3125 -0.28906,-0.455079 -0.18945,-0.142578 -0.47656,-0.142578 -0.33008,0 -0.55273,0.158203 -0.22071,0.158204 -0.31055,0.425782 -0.0898,0.265625 -0.0898,0.548828 0,0.365234 0.10547,0.638672 0.10743,0.271484 0.33203,0.40625 0.22461,0.134765 0.48633,0.134765 0.31836,0 0.53907,-0.183593 0.2207,-0.183594 0.29882,-0.544922 z M 159.34766,45 158.23828,42.136719 h 0.41016 l 0.74414,2.080078 q 0.0898,0.25 0.15039,0.46875 0.0664,-0.234375 0.1543,-0.46875 l 0.77343,-2.080078 h 0.38672 L 159.73633,45 Z m 2.94531,0 v -2.863281 h 1.07422 q 0.32812,0 0.52539,0.08789 0.19922,0.08594 0.31054,0.267578 0.11329,0.179688 0.11329,0.376954 0,0.183593 -0.0996,0.345703 -0.0996,0.162109 -0.30078,0.261718 0.25976,0.07617 0.39843,0.259766 0.14063,0.183594 0.14063,0.433594 0,0.201172 -0.0859,0.375 -0.084,0.171875 -0.20898,0.265625 -0.125,0.09375 -0.31446,0.142578 Q 163.6582,45 163.38477,45 Z m 0.3789,-1.660156 h 0.61915 q 0.25195,0 0.36132,-0.0332 0.14453,-0.04297 0.2168,-0.142579 0.0742,-0.09961 0.0742,-0.25 0,-0.142578 -0.0684,-0.25 -0.0684,-0.109375 -0.19531,-0.148437 -0.12696,-0.04102 -0.43555,-0.04102 h -0.57227 z m 0,1.322265 h 0.7129 q 0.18359,0 0.25781,-0.01367 0.13086,-0.02344 0.21875,-0.07813 0.0879,-0.05469 0.14453,-0.158203 0.0566,-0.105468 0.0566,-0.242187 0,-0.160156 -0.082,-0.277344 -0.082,-0.119141 -0.22852,-0.166016 -0.14453,-0.04883 -0.41797,-0.04883 h -0.66211 z"
   id="text13"
   style="font-size:4px;font-family:Arial, Helvetica, sans-serif;text-anchor:middle"
   aria-label="CV B" />
<path
   d="m 169.57227,23.876953 v -0.335937 l 1.21289,-0.002 v 1.0625 q -0.2793,0.222657 -0.57618,0.335938 -0.29687,0.111328 -0.60937,0.111328 -0.42188,0 -0.76758,-0.179687 -0.34375,-0.181641 -0.51953,-0.523438 -0.17578,-0.341797 -0.17578,-0.763672 0,-0.417969 0.17383,-0.779297 0.17578,-0.363281 0.5039,-0.539062 0.32813,-0.175781 0.75586,-0.175781 0.31055,0 0.56055,0.101562 0.25195,0.09961 0.39453,0.279297 0.14258,0.179687 0.2168,0.46875 l -0.3418,0.09375 q -0.0644,-0.21875 -0.16016,-0.34375 -0.0957,-0.125 -0.27343,-0.199219 -0.17774,-0.07617 -0.39453,-0.07617 -0.25977,0 -0.44922,0.08008 -0.18946,0.07813 -0.30664,0.207032 -0.11524,0.128906 -0.17969,0.283203 -0.10938,0.265625 -0.10938,0.576172 0,0.382812 0.13086,0.640625 0.13282,0.257812 0.38477,0.382812 0.25195,0.125 0.53515,0.125 0.2461,0 0.48047,-0.09375 0.23438,-0.0957 0.35547,-0.203125 V 23.876953 Z M 171.0293,25 l 1.09961,-2.863281 h 0.4082 L 173.70898,25 h -0.43164 l -0.33398,-0.867188 h -1.19727 L 171.43164,25 Z m 0.82617,-1.175781 h 0.9707 l -0.29883,-0.792969 q -0.13672,-0.361328 -0.20312,-0.59375 -0.0547,0.275391 -0.1543,0.546875 z M 174.44336,25 V 22.474609 H 173.5 v -0.33789 h 2.26953 v 0.33789 h -0.94726 V 25 Z m 1.72266,0 v -2.863281 h 2.07031 v 0.33789 h -1.69141 v 0.876953 h 1.58399 V 23.6875 h -1.58399 v 0.974609 h 1.75781 V 25 Z m 3.23632,0 1.09961,-2.863281 h 0.40821 L 182.08203,25 h -0.43164 l -0.33398,-0.867188 h -1.19727 L 179.80469,25 Z m 0.82618,-1.175781 h 0.9707 l -0.29883,-0.792969 q -0.13672,-0.361328 -0.20312,-0.59375 -0.0547,0.275391 -0.1543,0.546875 z"
   id="text14"
   style="font-size:4px;font-family:Arial, Helvetica, sans-serif;text-anchor:middle"
   aria-label="GATE A" />
<path
   d="m 169.46191,43.876953 v -0.335937 l 1.21289,-0.002 v 1.0625 q -0.27929,0.222657 -0.57617,0.335938 -0.29687,0.111328 -0.60937,0.111328 -0.42188,0 -0.76758,-0.179687 -0.34375,-0.181641 -0.51953,-0.523438 -0.17578,-0.341797 -0.17578,-0.763672 0,-0.417969 0.17383,-0.779297 0.17578,-0.363281 0.5039,-0.539062 0.32813,-0.175781 0.75586,-0.175781 0.31055,0 0.56055,0.101562 0.25195,0.09961 0.39453,0.279297 0.14258,0.179687 0.2168,0.46875 l -0.3418,0.09375 q -0.0644,-0.21875 -0.16016,-0.34375 -0.0957,-0.125 -0.27343,-0.199219 -0.17774,-0.07617 -0.39454,-0.07617 -0.25976,0 -0.44921,0.08008 -0.18946,0.07813 -0.30665,0.207032 -0.11523,0.128906 -0.17968,0.283203 -0.10938,0.265625 -0.10938,0.576172 0,0.382812 0.13086,0.640625 0.13281,0.257812 0.38477,0.382812 0.25195,0.125 0.53515,0.125 0.2461,0 0.48047,-0.09375 0.23438,-0.0957 0.35547,-0.203125 V 43.876953 Z M 170.91895,45 l 1.0996,-2.863281 h 0.40821 L 173.59863,45 h -0.43164 l -0.33398,-0.867188 h -1.19727 L 171.32129,45 Z m 0.82617,-1.175781 h 0.9707 l -0.29883,-0.792969 q -0.13672,-0.361328 -0.20312,-0.59375 -0.0547,0.275391 -0.1543,0.546875 z M 174.33301,45 v -2.525391 h -0.94336 v -0.33789 h 2.26953 v 0.33789 h -0.94727 V 45 Z m 1.72265,0 v -2.863281 h 2.07032 v 0.33789 h -1.69141 v 0.876953 h 1.58398 V 43.6875 h -1.58398 v 0.974609 h 1.75781 V 45 Z m 3.75586,0 v -2.863281 h 1.07422 q 0.32813,0 0.52539,0.08789 0.19922,0.08594 0.31055,0.267578 0.11328,0.179688 0.11328,0.376954 0,0.183593 -0.0996,0.345703 -0.0996,0.162109 -0.30078,0.261718 0.25977,0.07617 0.39844,0.259766 0.14062,0.183594 0.14062,0.433594 0,0.201172 -0.0859,0.375 -0.084,0.171875 -0.20899,0.265625 -0.125,0.09375 -0.31445,0.142578 Q 181.17676,45 180.90332,45 Z m 0.37891,-1.660156 h 0.61914 q 0.25195,0 0.36133,-0.0332 0.14453,-0.04297 0.2168,-0.142579 0.0742,-0.09961 0.0742,-0.25 0,-0.142578 -0.0684,-0.25 -0.0684,-0.109375 -0.19531,-0.148437 -0.12695,-0.04102 -0.43554,-0.04102 h -0.57227 z m 0,1.322265 h 0.71289 q 0.18359,0 0.25781,-0.01367 0.13086,-0.02344 0.21875,-0.07813 0.0879,-0.05469 0.14453,-0.158203 0.0566,-0.105468 0.0566,-0.242187 0,-0.160156 -0.082,-0.277344 -0.082,-0.119141 -0.22851,-0.166016 -0.14453,-0.04883 -0.41797,-0.04883 h -0.66211 z"
   id="text15"
   style="font-size:4px;font-family:Arial, Helvetica, sans-serif;text-anchor:middle"
   aria-label="GATE B" />
<!-- BOTTOM SECTION: WORD A -->
<path
   d="m 10.259766,88 v -2.863281 h 0.378906 V 88 Z m 1.042968,0 v -2.863281 h 0.388672 l 1.503907,2.248047 v -2.248047 h 0.363281 V 88 H 13.169922 L 11.666016,85.75 V 88 Z m 3.710938,0 -1.109375,-2.863281 h 0.410156 l 0.744141,2.080078 q 0.08984,0.25 0.15039,0.46875 0.06641,-0.234375 0.154297,-0.46875 l 0.773438,-2.080078 h 0.386718 L 15.402344,88 Z m 2.425781,0 1.099609,-2.863281 h 0.408204 L 20.119141,88 H 19.6875 L 19.353516,87.132812 H 18.15625 L 17.841797,88 Z m 0.826172,-1.175781 h 0.970703 L 18.9375,86.03125 q -0.136719,-0.361328 -0.203125,-0.59375 -0.05469,0.275391 -0.154297,0.546875 z"
   id="text16"
   style="font-size:4px;font-family:Arial, Helvetica, sans-serif;text-anchor:middle"
   aria-label="INV A" />
<path
   d="m 30.527954,88 v -2.505371 h 1.690186 v 0.295654 h -1.358643 v 0.775879 h 1.175781 v 0.295654 H 30.859497 V 88 Z m 2.107178,0 v -2.505371 h 0.331543 v 2.209717 h 1.233887 V 88 Z m 2.016601,0 v -2.505371 h 0.331543 V 88 Z m 0.916016,0 v -2.505371 h 0.945068 q 0.249512,0 0.381104,0.02393 0.18457,0.03076 0.309326,0.11792 0.124756,0.08545 0.199951,0.240966 0.0769,0.155518 0.0769,0.341797 0,0.31958 -0.20337,0.541748 -0.203369,0.220459 -0.734863,0.220459 H 35.899292 V 88 Z m 0.331543,-1.314209 h 0.647705 q 0.321289,0 0.456299,-0.119629 0.13501,-0.119629 0.13501,-0.33667 0,-0.157226 -0.08032,-0.26831 -0.07861,-0.112793 -0.208496,-0.148682 -0.08374,-0.02222 -0.309326,-0.02222 H 35.899292 Z M 38.34314,88 39.305298,85.494629 h 0.357178 L 40.687866,88 H 40.310181 L 40.017944,87.241211 H 38.970337 L 38.69519,88 Z m 0.7229,-1.028809 h 0.849365 l -0.261474,-0.693847 q -0.119629,-0.316162 -0.177735,-0.519532 -0.04785,0.240967 -0.135009,0.478516 z M 42.306274,88 v -2.209717 h -0.825439 v -0.295654 h 1.98584 v 0.295654 H 42.637817 V 88 Z m 1.505616,0 v -2.505371 h 1.110839 q 0.334961,0 0.509278,0.06836 0.174316,0.06665 0.278564,0.237549 0.104248,0.170899 0.104248,0.377686 0,0.266601 -0.172607,0.449463 -0.172608,0.182861 -0.533203,0.232421 0.131592,0.06323 0.199951,0.124756 0.145264,0.133301 0.275146,0.333252 L 46.019897,88 h -0.416992 l -0.331543,-0.52124 q -0.145263,-0.225586 -0.239258,-0.345215 -0.09399,-0.119629 -0.169189,-0.167481 -0.07349,-0.04785 -0.150391,-0.06665 -0.0564,-0.01196 -0.18457,-0.01196 H 44.143433 V 88 Z m 0.331543,-1.399658 h 0.712646 q 0.227295,0 0.355469,-0.04614 0.128174,-0.04785 0.194824,-0.15039 0.06665,-0.104248 0.06665,-0.225586 0,-0.177735 -0.129882,-0.292237 -0.128174,-0.114502 -0.406739,-0.114502 H 44.143433 Z M 46.390747,88 V 85.494629 H 46.72229 V 88 Z m 2.088379,-0.982666 v -0.293945 l 1.061279,-0.0017 v 0.929687 q -0.244384,0.194824 -0.50415,0.293945 -0.259766,0.09741 -0.533203,0.09741 -0.369141,0 -0.671631,-0.157227 -0.300781,-0.158936 -0.45459,-0.458008 -0.153809,-0.299072 -0.153809,-0.668213 0,-0.365722 0.1521,-0.681884 0.153809,-0.317872 0.440918,-0.47168 0.287109,-0.153809 0.661377,-0.153809 0.271729,0 0.490479,0.08887 0.220458,0.08716 0.345214,0.244385 0.124756,0.157227 0.189698,0.410156 l -0.299073,0.08203 q -0.0564,-0.191407 -0.140136,-0.300782 -0.08374,-0.109375 -0.239258,-0.174316 -0.155518,-0.06665 -0.345215,-0.06665 -0.227295,0 -0.393066,0.07007 -0.165772,0.06836 -0.268311,0.181152 -0.10083,0.112793 -0.157227,0.247803 -0.0957,0.232422 -0.0957,0.504151 0,0.33496 0.114502,0.560546 0.116211,0.225586 0.33667,0.334961 0.220459,0.109375 0.468262,0.109375 0.215332,0 0.42041,-0.08203 0.205078,-0.08374 0.311035,-0.177734 v -0.466553 z"
   id="text17"
   style="font-size:3.5px;font-family:Arial, Helvetica, sans-serif;text-anchor:middle"
   aria-label="FLIP A TRIG" />
<path
   d="m 110.54932,85 -0.8545,-3.579102 h 0.73975 l 0.53955,2.458497 0.6543,-2.458497 h 0.85937 l 0.62744,2.5 0.54932,-2.5 h 0.72754 L 113.52295,85 h -0.7666 L 112.04346,82.324219 111.33301,85 Z m 4.06494,-1.767578 q 0,-0.546875 0.16357,-0.917969 0.12207,-0.273437 0.33203,-0.490723 0.21241,-0.217285 0.46387,-0.322265 0.33447,-0.141602 0.77148,-0.141602 0.79102,0 1.26465,0.490723 0.47608,0.490723 0.47608,1.364746 0,0.866699 -0.47119,1.357422 -0.4712,0.488281 -1.25977,0.488281 -0.79834,0 -1.26953,-0.48584 -0.47119,-0.488281 -0.47119,-1.342773 z m 0.74463,-0.02441 q 0,0.60791 0.28076,0.922851 0.28076,0.3125 0.71289,0.3125 0.43213,0 0.70801,-0.310058 0.27832,-0.3125 0.27832,-0.935059 0,-0.615234 -0.271,-0.917969 -0.26855,-0.302734 -0.71533,-0.302734 -0.44678,0 -0.72022,0.307617 -0.27343,0.305176 -0.27343,0.922852 z M 118.65234,85 v -3.579102 h 1.521 q 0.57373,0 0.83252,0.09766 0.26123,0.09521 0.41748,0.341797 0.15625,0.246582 0.15625,0.563964 0,0.402832 -0.23682,0.666504 -0.23681,0.261231 -0.708,0.32959 0.23437,0.136719 0.38574,0.300293 0.15381,0.163574 0.4126,0.581055 L 121.87012,85 h -0.86426 l -0.52246,-0.778809 q -0.27832,-0.41748 -0.38086,-0.524902 -0.10254,-0.109863 -0.21729,-0.148926 -0.11474,-0.0415 -0.36377,-0.0415 H 119.375 V 85 Z m 0.72266,-2.06543 h 0.53467 q 0.52002,0 0.64941,-0.04394 0.1294,-0.04394 0.20264,-0.151367 0.0732,-0.107422 0.0732,-0.268555 0,-0.180664 -0.0977,-0.290527 -0.0952,-0.112305 -0.27099,-0.141602 -0.0879,-0.01221 -0.52735,-0.01221 H 119.375 Z m 2.8833,-1.513672 h 1.3208 q 0.44678,0 0.68115,0.06836 0.31495,0.09277 0.53955,0.32959 0.22461,0.236816 0.3418,0.581054 0.11719,0.341797 0.11719,0.844727 0,0.441894 -0.10986,0.761719 -0.13428,0.390625 -0.3833,0.632324 -0.18799,0.183105 -0.50782,0.285644 Q 124.01855,85 123.61816,85 h -1.35986 z m 0.72266,0.605469 v 2.370606 h 0.53955 q 0.30273,0 0.43701,-0.03418 0.17578,-0.04394 0.29053,-0.148926 0.11718,-0.10498 0.19043,-0.344238 0.0732,-0.241699 0.0732,-0.656738 0,-0.415039 -0.0732,-0.637207 -0.0733,-0.222168 -0.20508,-0.34668 -0.13184,-0.124512 -0.33447,-0.168457 -0.15137,-0.03418 -0.59327,-0.03418 z M 130.30273,85 h -0.78613 l -0.3125,-0.812988 h -1.43066 L 127.47803,85 h -0.7666 l 1.39404,-3.579102 h 0.76416 z m -1.33056,-1.416016 -0.49317,-1.328125 -0.48339,1.328125 z"
   id="text18"
   style="font-weight:bold;font-size:5px;font-family:Arial, Helvetica, sans-serif;text-anchor:middle"
   aria-label="WORD A" />
<!-- Word A Bit Numbers (y=106, start x=60, 8mm spacing) -->
<g
   font-family="Arial, Helvetica, sans-serif"
   font-size="3.5"
   fill="#000000"
   text-anchor="middle"
   id="g34">
  <path
     d="m 60.330688,90 h -0.307617 v -1.960205 q -0.111084,0.105957 -0.292236,0.211914 -0.179443,0.105957 -0.322998,0.158936 v -0.297364 q 0.258057,-0.121338 0.451172,-0.293945 0.193115,-0.172607 0.273437,-0.334961 h 0.198242 z"
     id="text19"
     aria-label="1" />
  <path
     d="M 68.788696,89.704346 V 90 H 67.13269 q -0.0034,-0.111084 0.03589,-0.213623 0.06323,-0.16919 0.20166,-0.333252 0.140137,-0.164063 0.403321,-0.379395 0.408447,-0.33496 0.552002,-0.529785 0.143554,-0.196533 0.143554,-0.370849 0,-0.182862 -0.131592,-0.307617 -0.129882,-0.126465 -0.340087,-0.126465 -0.222168,0 -0.355469,0.1333 -0.133301,0.133301 -0.13501,0.369141 l -0.316162,-0.03247 q 0.03247,-0.353759 0.244385,-0.53833 0.211914,-0.186279 0.569091,-0.186279 0.360596,0 0.570801,0.199951 0.210205,0.199951 0.210205,0.495606 0,0.15039 -0.06152,0.295654 -0.06152,0.145264 -0.205078,0.305908 -0.141846,0.160645 -0.473389,0.440918 -0.276855,0.232422 -0.355469,0.316162 -0.07861,0.08203 -0.129882,0.165772 z"
     id="text20"
     aria-label="2" />
  <path
     d="m 75.173706,89.338623 0.307617,-0.04102 q 0.05298,0.261475 0.179444,0.377686 0.128173,0.114502 0.311035,0.114502 0.217041,0 0.365722,-0.150391 0.150391,-0.15039 0.150391,-0.372558 0,-0.211914 -0.138428,-0.348633 -0.138427,-0.138428 -0.35205,-0.138428 -0.08716,0 -0.217041,0.03418 l 0.03418,-0.27002 q 0.03076,0.0034 0.04956,0.0034 0.196533,0 0.35376,-0.102539 0.157226,-0.102539 0.157226,-0.316162 0,-0.169189 -0.114502,-0.280273 -0.114502,-0.111084 -0.295654,-0.111084 -0.179444,0 -0.299072,0.112793 -0.119629,0.112793 -0.153809,0.338379 l -0.307617,-0.05469 q 0.0564,-0.309326 0.256347,-0.478516 0.199952,-0.170898 0.497315,-0.170898 0.205078,0 0.377685,0.08887 0.172608,0.08716 0.263184,0.239258 0.09228,0.1521 0.09228,0.322998 0,0.162354 -0.08716,0.295654 -0.08716,0.133301 -0.258057,0.211914 0.222168,0.05127 0.345215,0.213623 0.123047,0.160645 0.123047,0.403321 0,0.328125 -0.239258,0.557129 -0.239258,0.227295 -0.60498,0.227295 -0.329834,0 -0.548584,-0.196534 -0.217041,-0.196533 -0.247803,-0.509277 z"
     id="text21"
     aria-label="3" />
  <path
     d="m 84.158081,90 v -0.599854 h -1.086914 v -0.281982 l 1.143311,-1.623535 h 0.25122 v 1.623535 h 0.338379 v 0.281982 H 84.465698 V 90 Z m 0,-0.881836 v -1.129639 l -0.784424,1.129639 z"
     id="text22"
     aria-label="4" />
  <path
     d="m 91.171997,89.34375 0.322998,-0.02734 q 0.03589,0.23584 0.165772,0.355469 0.131591,0.11792 0.316162,0.11792 0.222168,0 0.375976,-0.167481 0.153809,-0.16748 0.153809,-0.444335 0,-0.263184 -0.148682,-0.415284 -0.146972,-0.152099 -0.38623,-0.152099 -0.148682,0 -0.268311,0.06836 -0.119629,0.06665 -0.187988,0.174316 l -0.288818,-0.0376 0.242675,-1.286865 h 1.24585 v 0.293945 h -0.999756 l -0.13501,0.67334 q 0.225586,-0.157227 0.473389,-0.157227 0.328125,0 0.553711,0.227295 0.225586,0.227295 0.225586,0.584473 0,0.340088 -0.198242,0.58789 -0.240967,0.3042 -0.657959,0.3042 -0.341797,0 -0.558838,-0.191407 -0.215332,-0.191406 -0.246094,-0.507568 z"
     id="text23"
     aria-label="5" />
  <path
     d="m 100.76819,88.108154 -0.30591,0.02393 q -0.041,-0.181152 -0.11621,-0.263184 -0.12476,-0.131591 -0.30762,-0.131591 -0.146971,0 -0.258054,0.08203 -0.145264,0.105957 -0.229004,0.309326 -0.08374,0.203369 -0.08716,0.579346 0.111084,-0.16919 0.271729,-0.251221 0.160644,-0.08203 0.336668,-0.08203 0.30762,0 0.52295,0.227295 0.21704,0.225586 0.21704,0.584472 0,0.23584 -0.10254,0.439209 -0.10083,0.201661 -0.27856,0.309327 -0.17774,0.107666 -0.40332,0.107666 -0.384523,0 -0.627199,-0.281983 -0.242676,-0.283691 -0.242676,-0.933105 0,-0.726319 0.268311,-1.056153 0.234131,-0.287109 0.630614,-0.287109 0.29566,0 0.48364,0.165771 0.1897,0.165772 0.2273,0.458008 z m -1.256105,1.080078 q 0,0.158936 0.06665,0.3042 0.06836,0.145263 0.189698,0.222168 0.121338,0.07519 0.254637,0.07519 0.19483,0 0.33496,-0.157227 0.14014,-0.157226 0.14014,-0.427246 0,-0.259765 -0.13843,-0.408447 -0.13843,-0.150391 -0.34863,-0.150391 -0.208498,0 -0.353761,0.150391 -0.145264,0.148682 -0.145264,0.391357 z"
     id="text24"
     aria-label="6" />
  <path
     d="M 107.1925,87.822754 V 87.5271 h 1.62183 v 0.239257 q -0.23926,0.254639 -0.4751,0.676758 -0.23413,0.422119 -0.3623,0.868164 -0.0923,0.314453 -0.11792,0.688721 h -0.31616 q 0.005,-0.295654 0.11621,-0.714355 0.11108,-0.418702 0.31787,-0.806641 0.20849,-0.389649 0.44263,-0.65625 z"
     id="text25"
     aria-label="7" />
  <path
     d="m 115.64539,88.641357 q -0.19141,-0.07007 -0.2837,-0.199951 -0.0923,-0.129883 -0.0923,-0.311035 0,-0.273437 0.19653,-0.459717 0.19654,-0.186279 0.52295,-0.186279 0.32813,0 0.52808,0.191406 0.19995,0.189698 0.19995,0.463135 0,0.174316 -0.0923,0.304199 -0.0906,0.128174 -0.27685,0.198242 0.23071,0.0752 0.35034,0.242676 0.12134,0.167481 0.12134,0.399903 0,0.321289 -0.2273,0.540039 -0.22729,0.21875 -0.59814,0.21875 -0.37085,0 -0.59815,-0.21875 -0.22729,-0.220459 -0.22729,-0.548584 0,-0.244385 0.12305,-0.408448 0.12475,-0.165771 0.35376,-0.225586 z m -0.0615,-0.52124 q 0,0.177735 0.1145,0.290528 0.11451,0.112792 0.29737,0.112792 0.17773,0 0.29052,-0.111083 0.11451,-0.112793 0.11451,-0.275147 0,-0.169189 -0.11792,-0.283691 -0.11621,-0.116211 -0.29053,-0.116211 -0.17603,0 -0.29224,0.112793 -0.11621,0.112793 -0.11621,0.270019 z m -0.0991,1.156983 q 0,0.131591 0.0615,0.254638 0.0632,0.123047 0.18628,0.191407 0.12305,0.06665 0.2649,0.06665 0.22046,0 0.36401,-0.141846 0.14355,-0.141845 0.14355,-0.360595 0,-0.222168 -0.14868,-0.367432 -0.14697,-0.145264 -0.36914,-0.145264 -0.21704,0 -0.36059,0.143555 -0.14185,0.143555 -0.14185,0.358887 z"
     id="text26"
     aria-label="8" />
  <path
     d="m 123.21814,89.420654 0.29565,-0.02734 q 0.0376,0.208496 0.14356,0.30249 0.10596,0.09399 0.27173,0.09399 0.14184,0 0.2478,-0.06494 0.10767,-0.06494 0.17603,-0.172608 0.0684,-0.109375 0.1145,-0.293945 0.0461,-0.184571 0.0461,-0.375977 0,-0.02051 -0.002,-0.06152 -0.0923,0.146972 -0.25293,0.239258 -0.15893,0.09058 -0.34521,0.09058 -0.31104,0 -0.52637,-0.225586 -0.21533,-0.225586 -0.21533,-0.594727 0,-0.381103 0.22387,-0.613525 0.22559,-0.232422 0.56397,-0.232422 0.24438,0 0.44604,0.131592 0.20337,0.131592 0.30762,0.375976 0.10596,0.242676 0.10596,0.704102 0,0.480225 -0.10425,0.765625 -0.10425,0.283691 -0.31104,0.432373 -0.20507,0.148682 -0.48193,0.148682 -0.29394,0 -0.48022,-0.162354 -0.18628,-0.164062 -0.22388,-0.459717 z m 1.25952,-1.105713 q 0,-0.264892 -0.14184,-0.42041 -0.14014,-0.155517 -0.33838,-0.155517 -0.20508,0 -0.35718,0.16748 -0.1521,0.167481 -0.1521,0.434082 0,0.239258 0.14355,0.389649 0.14527,0.148681 0.35718,0.148681 0.21362,0 0.35034,-0.148681 0.13843,-0.150391 0.13843,-0.415284 z"
     id="text27"
     aria-label="9" />
  <path
     d="m 131.35742,90 h -0.30762 v -1.960205 q -0.11108,0.105957 -0.29223,0.211914 -0.17945,0.105957 -0.323,0.158936 v -0.297364 q 0.25806,-0.121338 0.45117,-0.293945 0.19312,-0.172607 0.27344,-0.334961 h 0.19824 z m 0.78784,-1.235596 q 0,-0.444336 0.0906,-0.714355 0.0923,-0.271729 0.27173,-0.418701 0.18115,-0.146973 0.45459,-0.146973 0.20166,0 0.35376,0.08203 0.1521,0.08032 0.25122,0.234131 0.0991,0.1521 0.15552,0.372559 0.0564,0.21875 0.0564,0.591308 0,0.440918 -0.0906,0.712647 -0.0906,0.270019 -0.27173,0.418701 -0.17945,0.146973 -0.45459,0.146973 -0.36231,0 -0.56909,-0.259766 -0.24781,-0.312744 -0.24781,-1.018555 z m 0.31617,0 q 0,0.616944 0.14355,0.822022 0.14526,0.203369 0.35718,0.203369 0.21191,0 0.35547,-0.205078 0.14526,-0.205078 0.14526,-0.820313 0,-0.618652 -0.14526,-0.822021 -0.14356,-0.203369 -0.35889,-0.203369 -0.21191,0 -0.33838,0.179443 -0.15893,0.229004 -0.15893,0.845947 z"
     id="text28"
     aria-label="10" />
  <path
     d="m 139.4873,90 h -0.30761 v -1.960205 q -0.11109,0.105957 -0.29224,0.211914 -0.17944,0.105957 -0.323,0.158936 v -0.297364 q 0.25806,-0.121338 0.45117,-0.293945 0.19312,-0.172607 0.27344,-0.334961 h 0.19824 z m 1.68677,0 h -0.30761 v -1.960205 q -0.11109,0.105957 -0.29224,0.211914 -0.17944,0.105957 -0.323,0.158936 v -0.297364 q 0.25806,-0.121338 0.45117,-0.293945 0.19312,-0.172607 0.27344,-0.334961 h 0.19824 z"
     id="text29"
     aria-label="11" />
  <path
     d="m 147.35742,90 h -0.30762 v -1.960205 q -0.11108,0.105957 -0.29223,0.211914 -0.17945,0.105957 -0.323,0.158936 v -0.297364 q 0.25806,-0.121338 0.45117,-0.293945 0.19312,-0.172607 0.27344,-0.334961 h 0.19824 z m 2.40454,-0.295654 V 90 h -1.656 q -0.003,-0.111084 0.0359,-0.213623 0.0632,-0.16919 0.20166,-0.333252 0.14013,-0.164063 0.40332,-0.379395 0.40844,-0.33496 0.552,-0.529785 0.14355,-0.196533 0.14355,-0.370849 0,-0.182862 -0.13159,-0.307617 -0.12988,-0.126465 -0.34009,-0.126465 -0.22216,0 -0.35547,0.1333 -0.1333,0.133301 -0.13501,0.369141 l -0.31616,-0.03247 q 0.0325,-0.353759 0.24439,-0.53833 0.21191,-0.186279 0.56909,-0.186279 0.36059,0 0.5708,0.199951 0.2102,0.199951 0.2102,0.495606 0,0.15039 -0.0615,0.295654 -0.0615,0.145264 -0.20508,0.305908 -0.14184,0.160645 -0.47339,0.440918 -0.27685,0.232422 -0.35546,0.316162 -0.0786,0.08203 -0.12989,0.165772 z"
     id="text30"
     aria-label="12" />
  <path
     d="m 155.35742,90 h -0.30762 v -1.960205 q -0.11108,0.105957 -0.29223,0.211914 -0.17945,0.105957 -0.323,0.158936 v -0.297364 q 0.25806,-0.121338 0.45117,-0.293945 0.19312,-0.172607 0.27344,-0.334961 h 0.19824 z m 0.78955,-0.661377 0.30762,-0.04102 q 0.053,0.261475 0.17944,0.377686 0.12818,0.114502 0.31104,0.114502 0.21704,0 0.36572,-0.150391 0.15039,-0.15039 0.15039,-0.372558 0,-0.211914 -0.13843,-0.348633 -0.13842,-0.138428 -0.35205,-0.138428 -0.0872,0 -0.21704,0.03418 l 0.0342,-0.27002 q 0.0308,0.0034 0.0496,0.0034 0.19654,0 0.35376,-0.102539 0.15723,-0.102539 0.15723,-0.316162 0,-0.169189 -0.1145,-0.280273 -0.11451,-0.111084 -0.29566,-0.111084 -0.17944,0 -0.29907,0.112793 -0.11963,0.112793 -0.15381,0.338379 l -0.30762,-0.05469 q 0.0564,-0.309326 0.25635,-0.478516 0.19995,-0.170898 0.49732,-0.170898 0.20507,0 0.37768,0.08887 0.17261,0.08716 0.26319,0.239258 0.0923,0.1521 0.0923,0.322998 0,0.162354 -0.0872,0.295654 -0.0872,0.133301 -0.25805,0.211914 0.22216,0.05127 0.34521,0.213623 0.12305,0.160645 0.12305,0.403321 0,0.328125 -0.23926,0.557129 -0.23926,0.227295 -0.60498,0.227295 -0.32983,0 -0.54858,-0.196534 -0.21705,-0.196533 -0.24781,-0.509277 z"
     id="text31"
     aria-label="13" />
  <path
     d="m 163.35742,90 h -0.30762 v -1.960205 q -0.11108,0.105957 -0.29223,0.211914 -0.17945,0.105957 -0.323,0.158936 v -0.297364 q 0.25806,-0.121338 0.45117,-0.293945 0.19312,-0.172607 0.27344,-0.334961 h 0.19824 z m 1.77393,0 v -0.599854 h -1.08692 v -0.281982 l 1.14331,-1.623535 h 0.25122 v 1.623535 h 0.33838 v 0.281982 h -0.33838 V 90 Z m 0,-0.881836 v -1.129639 l -0.78443,1.129639 z"
     id="text32"
     aria-label="14" />
  <path
     d="m 171.35742,90 h -0.30762 v -1.960205 q -0.11108,0.105957 -0.29223,0.211914 -0.17945,0.105957 -0.323,0.158936 v -0.297364 q 0.25806,-0.121338 0.45117,-0.293945 0.19312,-0.172607 0.27344,-0.334961 h 0.19824 z m 0.78784,-0.65625 0.323,-0.02734 q 0.0359,0.23584 0.16577,0.355469 0.13159,0.11792 0.31617,0.11792 0.22216,0 0.37597,-0.167481 0.15381,-0.16748 0.15381,-0.444335 0,-0.263184 -0.14868,-0.415284 -0.14697,-0.152099 -0.38623,-0.152099 -0.14868,0 -0.26831,0.06836 -0.11963,0.06665 -0.18799,0.174316 l -0.28882,-0.0376 0.24268,-1.286865 h 1.24585 v 0.293945 h -0.99976 l -0.13501,0.67334 q 0.22559,-0.157227 0.47339,-0.157227 0.32812,0 0.55371,0.227295 0.22559,0.227295 0.22559,0.584473 0,0.340088 -0.19825,0.58789 -0.24096,0.3042 -0.65795,0.3042 -0.3418,0 -0.55884,-0.191407 -0.21533,-0.191406 -0.2461,-0.507568 z"
     id="text33"
     aria-label="15" />
  <path
     d="m 179.35742,90 h -0.30762 v -1.960205 q -0.11108,0.105957 -0.29223,0.211914 -0.17945,0.105957 -0.323,0.158936 v -0.297364 q 0.25806,-0.121338 0.45117,-0.293945 0.19312,-0.172607 0.27344,-0.334961 h 0.19824 z m 2.38404,-1.891846 -0.30591,0.02393 q -0.041,-0.181152 -0.11621,-0.263184 -0.12476,-0.131591 -0.30762,-0.131591 -0.14697,0 -0.25806,0.08203 -0.14526,0.105957 -0.229,0.309326 -0.0837,0.203369 -0.0872,0.579346 0.11108,-0.16919 0.27173,-0.251221 0.16064,-0.08203 0.33667,-0.08203 0.30762,0 0.52295,0.227295 0.21704,0.225586 0.21704,0.584472 0,0.23584 -0.10254,0.439209 -0.10083,0.201661 -0.27856,0.309327 -0.17774,0.107666 -0.40333,0.107666 -0.38452,0 -0.62719,-0.281983 -0.24268,-0.283691 -0.24268,-0.933105 0,-0.726319 0.26831,-1.056153 0.23413,-0.287109 0.63062,-0.287109 0.29565,0 0.48364,0.165771 0.1897,0.165772 0.2273,0.458008 z m -1.25611,1.080078 q 0,0.158936 0.0666,0.3042 0.0684,0.145263 0.1897,0.222168 0.12134,0.07519 0.25464,0.07519 0.19482,0 0.33496,-0.157227 0.14014,-0.157226 0.14014,-0.427246 0,-0.259765 -0.13843,-0.408447 -0.13843,-0.150391 -0.34864,-0.150391 -0.20849,0 -0.35375,0.150391 -0.14527,0.148682 -0.14527,0.391357 z"
     id="text34"
     aria-label="16" />
</g>
<!-- BOTTOM SECTION: WORD B -->
<path
   d="m 10.149414,110 v -2.86328 H 10.52832 V 110 Z m 1.042969,0 v -2.86328 h 0.388672 l 1.503906,2.24805 v -2.24805 h 0.363281 V 110 H 13.05957 l -1.503906,-2.25 V 110 Z m 3.710937,0 -1.109375,-2.86328 h 0.410157 l 0.74414,2.08008 q 0.08984,0.25 0.150391,0.46875 0.06641,-0.23438 0.154297,-0.46875 l 0.773437,-2.08008 h 0.386719 L 15.291992,110 Z m 2.945313,0 v -2.86328 h 1.074219 q 0.328125,0 0.52539,0.0879 0.199219,0.0859 0.310547,0.26758 0.113281,0.17969 0.113281,0.37695 0,0.18359 -0.09961,0.3457 -0.09961,0.16211 -0.300781,0.26172 0.259765,0.0762 0.398437,0.25977 0.140625,0.18359 0.140625,0.43359 0,0.20117 -0.08594,0.375 -0.08398,0.17188 -0.208985,0.26563 -0.125,0.0937 -0.314453,0.14258 Q 19.213867,110 18.94043,110 Z m 0.378906,-1.66016 h 0.619141 q 0.251953,0 0.361328,-0.0332 0.144531,-0.043 0.216797,-0.14258 0.07422,-0.0996 0.07422,-0.25 0,-0.14258 -0.06836,-0.25 -0.06836,-0.10937 -0.195312,-0.14843 -0.126954,-0.041 -0.435547,-0.041 h -0.572266 z m 0,1.32227 h 0.712891 q 0.183593,0 0.257812,-0.0137 0.13086,-0.0234 0.21875,-0.0781 0.08789,-0.0547 0.144531,-0.1582 0.05664,-0.10547 0.05664,-0.24219 0,-0.16015 -0.08203,-0.27734 -0.08203,-0.11914 -0.228516,-0.16602 -0.144531,-0.0488 -0.417969,-0.0488 h -0.662109 z"
   id="text35"
   style="font-size:4px;font-family:Arial, Helvetica, sans-serif;text-anchor:middle"
   aria-label="INV B" />
<path
   d="m 30.334839,110 v -2.50537 h 1.690185 v 0.29565 h -1.358642 v 0.77588 h 1.175781 v 0.29566 H 30.666382 V 110 Z m 2.107178,0 v -2.50537 h 0.331543 v 2.20972 h 1.233886 V 110 Z m 2.016601,0 v -2.50537 h 0.331543 V 110 Z m 0.916016,0 v -2.50537 h 0.945068 q 0.249512,0 0.381104,0.0239 0.18457,0.0308 0.309326,0.11792 0.124756,0.0854 0.199951,0.24097 0.0769,0.15552 0.0769,0.3418 0,0.31958 -0.203369,0.54175 -0.203369,0.22046 -0.734863,0.22046 H 35.706177 V 110 Z m 0.331543,-1.31421 h 0.647705 q 0.321289,0 0.456299,-0.11963 0.135009,-0.11963 0.135009,-0.33667 0,-0.15722 -0.08032,-0.26831 -0.07861,-0.11279 -0.208496,-0.14868 -0.08374,-0.0222 -0.309326,-0.0222 H 35.706177 Z M 38.604614,110 v -2.50537 h 0.939942 q 0.287109,0 0.459716,0.0769 0.174317,0.0752 0.271729,0.23413 0.09912,0.15723 0.09912,0.32984 0,0.16064 -0.08716,0.30249 -0.08716,0.14184 -0.263184,0.229 0.227295,0.0666 0.348633,0.2273 0.123047,0.16064 0.123047,0.37939 0,0.17603 -0.0752,0.32813 -0.07349,0.15039 -0.182862,0.23242 -0.109375,0.082 -0.275146,0.12475 Q 39.799194,110 39.559937,110 Z m 0.331543,-1.45264 h 0.541748 q 0.220459,0 0.316162,-0.029 0.126465,-0.0376 0.189698,-0.12476 0.06494,-0.0872 0.06494,-0.21875 0,-0.12475 -0.05981,-0.21875 -0.05982,-0.0957 -0.170899,-0.12988 -0.111084,-0.0359 -0.381103,-0.0359 h -0.500733 z m 0,1.15699 h 0.62378 q 0.160644,0 0.225585,-0.012 0.114502,-0.0205 0.191407,-0.0684 0.0769,-0.0478 0.126465,-0.13842 0.04956,-0.0923 0.04956,-0.21192 0,-0.14014 -0.07178,-0.24267 -0.07178,-0.10425 -0.199951,-0.14527 -0.126465,-0.0427 -0.365723,-0.0427 H 38.936157 Z M 42.49939,110 v -2.20972 h -0.82544 v -0.29565 h 1.98584 v 0.29565 H 42.830933 V 110 Z m 1.505615,0 v -2.50537 h 1.11084 q 0.334961,0 0.509277,0.0684 0.174316,0.0666 0.278565,0.23755 0.104248,0.1709 0.104248,0.37768 0,0.2666 -0.172608,0.44947 -0.172607,0.18286 -0.533203,0.23242 0.131592,0.0632 0.199951,0.12475 0.145264,0.1333 0.275147,0.33326 L 46.213013,110 h -0.416992 l -0.331543,-0.52124 q -0.145264,-0.22559 -0.239258,-0.34522 -0.09399,-0.11962 -0.16919,-0.16748 -0.07349,-0.0478 -0.15039,-0.0666 -0.0564,-0.012 -0.184571,-0.012 H 44.336548 V 110 Z m 0.331543,-1.39966 h 0.712646 q 0.227295,0 0.355469,-0.0461 0.128174,-0.0478 0.194824,-0.15039 0.06665,-0.10425 0.06665,-0.22559 0,-0.17773 -0.129883,-0.29223 -0.128174,-0.11451 -0.406738,-0.11451 H 44.336548 Z M 46.583862,110 v -2.50537 h 0.331543 V 110 Z m 2.088379,-0.98267 v -0.29394 l 1.06128,-0.002 v 0.92969 q -0.244385,0.19482 -0.504151,0.29394 -0.259766,0.0974 -0.533203,0.0974 -0.369141,0 -0.671631,-0.15722 -0.300781,-0.15894 -0.45459,-0.45801 -0.153808,-0.29907 -0.153808,-0.66821 0,-0.36573 0.152099,-0.68189 0.153809,-0.31787 0.440918,-0.47168 0.28711,-0.15381 0.661377,-0.15381 0.271729,0 0.490479,0.0889 0.220459,0.0872 0.345215,0.24439 0.124755,0.15722 0.189697,0.41015 l -0.299072,0.082 q -0.0564,-0.1914 -0.140137,-0.30078 -0.08374,-0.10937 -0.239258,-0.17431 -0.155518,-0.0666 -0.345215,-0.0666 -0.227295,0 -0.393066,0.0701 -0.165772,0.0684 -0.268311,0.18116 -0.10083,0.11279 -0.157226,0.2478 -0.0957,0.23242 -0.0957,0.50415 0,0.33496 0.114502,0.56055 0.11621,0.22558 0.336669,0.33496 0.220459,0.10937 0.468262,0.10937 0.215332,0 0.42041,-0.082 0.205078,-0.0837 0.311035,-0.17773 v -0.46656 z"
   id="text36"
   style="font-size:3.5px;font-family:Arial, Helvetica, sans-serif;text-anchor:middle"
   aria-label="FLIP B TRIG" />
<path
   d="m 110.45654,107 -0.85449,-3.5791 h 0.73975 l 0.53955,2.45849 0.65429,-2.45849 h 0.85938 l 0.62744,2.5 0.54932,-2.5 h 0.72754 L 113.43018,107 h -0.76661 L 111.95068,104.32422 111.24023,107 Z m 4.06494,-1.76758 q 0,-0.54687 0.16358,-0.91797 0.12207,-0.27343 0.33203,-0.49072 0.2124,-0.21728 0.46387,-0.32227 0.33447,-0.1416 0.77148,-0.1416 0.79102,0 1.26465,0.49073 0.47607,0.49072 0.47607,1.36474 0,0.8667 -0.47119,1.35742 -0.47119,0.48829 -1.25976,0.48829 -0.79834,0 -1.26953,-0.48584 -0.4712,-0.48829 -0.4712,-1.34278 z m 0.74463,-0.0244 q 0,0.60791 0.28077,0.92285 0.28076,0.3125 0.71289,0.3125 0.43212,0 0.708,-0.31006 0.27832,-0.3125 0.27832,-0.93506 0,-0.61523 -0.27099,-0.91797 -0.26856,-0.30273 -0.71533,-0.30273 -0.44678,0 -0.72022,0.30762 -0.27344,0.30517 -0.27344,0.92285 z M 118.55957,107 v -3.5791 h 1.521 q 0.57373,0 0.83252,0.0977 0.26123,0.0952 0.41748,0.3418 0.15625,0.24658 0.15625,0.56397 0,0.40283 -0.23682,0.6665 -0.23682,0.26123 -0.70801,0.32959 0.23438,0.13672 0.38574,0.30029 0.15381,0.16358 0.4126,0.58106 L 121.77734,107 h -0.86425 l -0.52246,-0.77881 q -0.27833,-0.41748 -0.38086,-0.5249 -0.10254,-0.10986 -0.21729,-0.14893 -0.11475,-0.0415 -0.36377,-0.0415 h -0.14648 V 107 Z m 0.72266,-2.06543 h 0.53466 q 0.52002,0 0.64942,-0.0439 0.12939,-0.0439 0.20264,-0.15137 0.0732,-0.10742 0.0732,-0.26856 0,-0.18066 -0.0977,-0.29052 -0.0952,-0.11231 -0.27099,-0.14161 -0.0879,-0.0122 -0.52735,-0.0122 h -0.56396 z m 2.8833,-1.51367 h 1.3208 q 0.44678,0 0.68115,0.0684 0.31494,0.0928 0.53955,0.32959 0.22461,0.23681 0.3418,0.58105 0.11719,0.3418 0.11719,0.84473 0,0.44189 -0.10987,0.76172 -0.13427,0.39062 -0.3833,0.63232 -0.18799,0.18311 -0.50781,0.28565 Q 123.92578,107 123.52539,107 h -1.35986 z m 0.72265,0.60547 v 2.3706 h 0.53955 q 0.30274,0 0.43702,-0.0342 0.17578,-0.0439 0.29052,-0.14892 0.11719,-0.10498 0.19043,-0.34424 0.0733,-0.2417 0.0733,-0.65674 0,-0.41504 -0.0733,-0.63721 -0.0732,-0.22216 -0.20507,-0.34668 -0.13184,-0.12451 -0.33448,-0.16845 -0.15136,-0.0342 -0.59326,-0.0342 z m 4.28223,-0.60547 h 1.43066 q 0.42481,0 0.63233,0.0366 0.20996,0.0342 0.37353,0.14648 0.16602,0.11231 0.27588,0.3003 0.10987,0.18554 0.10987,0.41748 0,0.25146 -0.13672,0.46142 -0.13428,0.20996 -0.36621,0.31494 0.32714,0.0952 0.50293,0.32471 0.17578,0.22949 0.17578,0.53955 0,0.24414 -0.11475,0.47608 -0.1123,0.22949 -0.31006,0.36865 -0.19531,0.13672 -0.4834,0.16846 -0.18066,0.0195 -0.87158,0.0244 h -1.21826 z m 0.72266,0.5957 v 0.82764 h 0.47363 q 0.42236,0 0.5249,-0.0122 0.18555,-0.022 0.29053,-0.12695 0.10742,-0.10742 0.10742,-0.28076 0,-0.16602 -0.0928,-0.26856 -0.0903,-0.10498 -0.271,-0.12695 -0.10742,-0.0122 -0.61767,-0.0122 z m 0,1.42334 v 0.95703 h 0.66894 q 0.39063,0 0.49561,-0.022 0.16113,-0.0293 0.26123,-0.1416 0.10254,-0.11475 0.10254,-0.30518 0,-0.16113 -0.0781,-0.27343 -0.0781,-0.11231 -0.22705,-0.16358 -0.14648,-0.0513 -0.63965,-0.0513 z"
   id="text37"
   style="font-weight:bold;font-size:5px;font-family:Arial, Helvetica, sans-serif;text-anchor:middle"
   aria-label="WORD B" />
<!-- Word B Bit Numbers (y=121, start x=60, 8mm spacing) -->
<g
   font-family="Arial, Helvetica, sans-serif"
   font-size="3.5"
   fill="#000000"
   text-anchor="middle"
   id="g53">
  <path
     d="m 60.330688,112 h -0.307617 v -1.96021 q -0.111084,0.10596 -0.292236,0.21192 -0.179443,0.10596 -0.322998,0.15893 v -0.29736 q 0.258057,-0.12134 0.451172,-0.29394 0.193115,-0.17261 0.273437,-0.33496 h 0.198242 z"
     id="text38"
     aria-label="1" />
  <path
     d="M 68.788696,111.70435 V 112 H 67.13269 q -0.0034,-0.11108 0.03589,-0.21362 0.06323,-0.16919 0.20166,-0.33325 0.140137,-0.16407 0.403321,-0.3794 0.408447,-0.33496 0.552002,-0.52978 0.143554,-0.19654 0.143554,-0.37085 0,-0.18287 -0.131592,-0.30762 -0.129882,-0.12647 -0.340087,-0.12647 -0.222168,0 -0.355469,0.1333 -0.133301,0.13331 -0.13501,0.36915 l -0.316162,-0.0325 q 0.03247,-0.35376 0.244385,-0.53833 0.211914,-0.18627 0.569091,-0.18627 0.360596,0 0.570801,0.19995 0.210205,0.19995 0.210205,0.4956 0,0.15039 -0.06152,0.29566 -0.06152,0.14526 -0.205078,0.3059 -0.141846,0.16065 -0.473389,0.44092 -0.276855,0.23242 -0.355469,0.31616 -0.07861,0.082 -0.129882,0.16578 z"
     id="text39"
     aria-label="2" />
  <path
     d="m 75.173706,111.33862 0.307617,-0.041 q 0.05298,0.26147 0.179444,0.37768 0.128173,0.1145 0.311035,0.1145 0.217041,0 0.365722,-0.15039 0.150391,-0.15039 0.150391,-0.37255 0,-0.21192 -0.138428,-0.34864 -0.138427,-0.13842 -0.35205,-0.13842 -0.08716,0 -0.217041,0.0342 l 0.03418,-0.27001 q 0.03076,0.003 0.04956,0.003 0.196533,0 0.35376,-0.10254 0.157226,-0.10253 0.157226,-0.31616 0,-0.16919 -0.114502,-0.28027 -0.114502,-0.11109 -0.295654,-0.11109 -0.179444,0 -0.299072,0.1128 -0.119629,0.11279 -0.153809,0.33838 l -0.307617,-0.0547 q 0.0564,-0.30933 0.256347,-0.47852 0.199952,-0.17089 0.497315,-0.17089 0.205078,0 0.377685,0.0889 0.172608,0.0872 0.263184,0.23926 0.09228,0.1521 0.09228,0.323 0,0.16235 -0.08716,0.29565 -0.08716,0.1333 -0.258057,0.21192 0.222168,0.0513 0.345215,0.21362 0.123047,0.16064 0.123047,0.40332 0,0.32812 -0.239258,0.55713 -0.239258,0.22729 -0.60498,0.22729 -0.329834,0 -0.548584,-0.19653 -0.217041,-0.19653 -0.247803,-0.50928 z"
     id="text40"
     aria-label="3" />
  <path
     d="m 84.158081,112 v -0.59985 h -1.086914 v -0.28199 l 1.143311,-1.62353 h 0.25122 v 1.62353 h 0.338379 v 0.28199 H 84.465698 V 112 Z m 0,-0.88184 v -1.12963 l -0.784424,1.12963 z"
     id="text41"
     aria-label="4" />
  <path
     d="m 91.171997,111.34375 0.322998,-0.0273 q 0.03589,0.23584 0.165772,0.35547 0.131591,0.11791 0.316162,0.11791 0.222168,0 0.375976,-0.16748 0.153809,-0.16748 0.153809,-0.44433 0,-0.26319 -0.148682,-0.41528 -0.146972,-0.1521 -0.38623,-0.1521 -0.148682,0 -0.268311,0.0684 -0.119629,0.0666 -0.187988,0.17431 l -0.288818,-0.0376 0.242675,-1.28686 h 1.24585 v 0.29394 h -0.999756 l -0.13501,0.67334 q 0.225586,-0.15722 0.473389,-0.15722 0.328125,0 0.553711,0.22729 0.225586,0.2273 0.225586,0.58447 0,0.34009 -0.198242,0.5879 -0.240967,0.30419 -0.657959,0.30419 -0.341797,0 -0.558838,-0.1914 -0.215332,-0.19141 -0.246094,-0.50757 z"
     id="text42"
     aria-label="5" />
  <path
     d="m 100.76819,110.10815 -0.30591,0.0239 q -0.041,-0.18115 -0.11621,-0.26318 -0.12476,-0.1316 -0.30762,-0.1316 -0.146971,0 -0.258054,0.082 -0.145264,0.10595 -0.229004,0.30932 -0.08374,0.20337 -0.08716,0.57935 0.111084,-0.16919 0.271729,-0.25122 0.160644,-0.082 0.336668,-0.082 0.30762,0 0.52295,0.22729 0.21704,0.22559 0.21704,0.58447 0,0.23584 -0.10254,0.43921 -0.10083,0.20166 -0.27856,0.30933 -0.17774,0.10766 -0.40332,0.10766 -0.384523,0 -0.627199,-0.28198 -0.242676,-0.28369 -0.242676,-0.9331 0,-0.72632 0.268311,-1.05616 0.234131,-0.2871 0.630614,-0.2871 0.29566,0 0.48364,0.16577 0.1897,0.16577 0.2273,0.458 z m -1.256105,1.08008 q 0,0.15894 0.06665,0.3042 0.06836,0.14527 0.189698,0.22217 0.121338,0.0752 0.254637,0.0752 0.19483,0 0.33496,-0.15722 0.14014,-0.15723 0.14014,-0.42725 0,-0.25976 -0.13843,-0.40844 -0.13843,-0.1504 -0.34863,-0.1504 -0.208498,0 -0.353761,0.1504 -0.145264,0.14868 -0.145264,0.39135 z"
     id="text43"
     aria-label="6" />
  <path
     d="m 107.1925,109.82275 v -0.29565 h 1.62183 v 0.23926 q -0.23926,0.25464 -0.4751,0.67676 -0.23413,0.42211 -0.3623,0.86816 -0.0923,0.31445 -0.11792,0.68872 h -0.31616 q 0.005,-0.29565 0.11621,-0.71436 0.11108,-0.4187 0.31787,-0.80664 0.20849,-0.38964 0.44263,-0.65625 z"
     id="text44"
     aria-label="7" />
  <path
     d="m 115.64539,110.64136 q -0.19141,-0.0701 -0.2837,-0.19995 -0.0923,-0.12989 -0.0923,-0.31104 0,-0.27344 0.19653,-0.45972 0.19654,-0.18627 0.52295,-0.18627 0.32813,0 0.52808,0.1914 0.19995,0.1897 0.19995,0.46314 0,0.17431 -0.0923,0.3042 -0.0906,0.12817 -0.27685,0.19824 0.23071,0.0752 0.35034,0.24267 0.12134,0.16748 0.12134,0.39991 0,0.32128 -0.2273,0.54003 -0.22729,0.21875 -0.59814,0.21875 -0.37085,0 -0.59815,-0.21875 -0.22729,-0.22045 -0.22729,-0.54858 0,-0.24438 0.12305,-0.40845 0.12475,-0.16577 0.35376,-0.22558 z m -0.0615,-0.52124 q 0,0.17773 0.1145,0.29052 0.11451,0.1128 0.29737,0.1128 0.17773,0 0.29052,-0.11109 0.11451,-0.11279 0.11451,-0.27514 0,-0.16919 -0.11792,-0.28369 -0.11621,-0.11622 -0.29053,-0.11622 -0.17603,0 -0.29224,0.1128 -0.11621,0.11279 -0.11621,0.27002 z m -0.0991,1.15698 q 0,0.13159 0.0615,0.25464 0.0632,0.12305 0.18628,0.1914 0.12305,0.0666 0.2649,0.0666 0.22046,0 0.36401,-0.14184 0.14355,-0.14185 0.14355,-0.3606 0,-0.22216 -0.14868,-0.36743 -0.14697,-0.14526 -0.36914,-0.14526 -0.21704,0 -0.36059,0.14355 -0.14185,0.14356 -0.14185,0.35889 z"
     id="text45"
     aria-label="8" />
  <path
     d="m 123.21814,111.42065 0.29565,-0.0273 q 0.0376,0.2085 0.14356,0.30249 0.10596,0.094 0.27173,0.094 0.14184,0 0.2478,-0.0649 0.10767,-0.0649 0.17603,-0.1726 0.0684,-0.10938 0.1145,-0.29395 0.0461,-0.18457 0.0461,-0.37598 0,-0.0205 -0.002,-0.0615 -0.0923,0.14697 -0.25293,0.23926 -0.15893,0.0906 -0.34521,0.0906 -0.31104,0 -0.52637,-0.22558 -0.21533,-0.22559 -0.21533,-0.59473 0,-0.3811 0.22387,-0.61352 0.22559,-0.23242 0.56397,-0.23242 0.24438,0 0.44604,0.13159 0.20337,0.13159 0.30762,0.37597 0.10596,0.24268 0.10596,0.7041 0,0.48023 -0.10425,0.76563 -0.10425,0.28369 -0.31104,0.43237 -0.20507,0.14868 -0.48193,0.14868 -0.29394,0 -0.48022,-0.16235 -0.18628,-0.16406 -0.22388,-0.45972 z m 1.25952,-1.10571 q 0,-0.26489 -0.14184,-0.42041 -0.14014,-0.15552 -0.33838,-0.15552 -0.20508,0 -0.35718,0.16748 -0.1521,0.16748 -0.1521,0.43409 0,0.23925 0.14355,0.38964 0.14527,0.14869 0.35718,0.14869 0.21362,0 0.35034,-0.14869 0.13843,-0.15039 0.13843,-0.41528 z"
     id="text46"
     aria-label="9" />
  <path
     d="m 131.35742,112 h -0.30762 v -1.96021 q -0.11108,0.10596 -0.29223,0.21192 -0.17945,0.10596 -0.323,0.15893 v -0.29736 q 0.25806,-0.12134 0.45117,-0.29394 0.19312,-0.17261 0.27344,-0.33496 h 0.19824 z m 0.78784,-1.2356 q 0,-0.44433 0.0906,-0.71435 0.0923,-0.27173 0.27173,-0.4187 0.18115,-0.14697 0.45459,-0.14697 0.20166,0 0.35376,0.082 0.1521,0.0803 0.25122,0.23413 0.0991,0.1521 0.15552,0.37256 0.0564,0.21875 0.0564,0.5913 0,0.44092 -0.0906,0.71265 -0.0906,0.27002 -0.27173,0.4187 -0.17945,0.14697 -0.45459,0.14697 -0.36231,0 -0.56909,-0.25976 -0.24781,-0.31275 -0.24781,-1.01856 z m 0.31617,0 q 0,0.61695 0.14355,0.82203 0.14526,0.20336 0.35718,0.20336 0.21191,0 0.35547,-0.20507 0.14526,-0.20508 0.14526,-0.82032 0,-0.61865 -0.14526,-0.82202 -0.14356,-0.20337 -0.35889,-0.20337 -0.21191,0 -0.33838,0.17945 -0.15893,0.229 -0.15893,0.84594 z"
     id="text47"
     aria-label="10" />
  <path
     d="m 139.4873,112 h -0.30761 v -1.96021 q -0.11109,0.10596 -0.29224,0.21192 -0.17944,0.10596 -0.323,0.15893 v -0.29736 q 0.25806,-0.12134 0.45117,-0.29394 0.19312,-0.17261 0.27344,-0.33496 h 0.19824 z m 1.68677,0 h -0.30761 v -1.96021 q -0.11109,0.10596 -0.29224,0.21192 -0.17944,0.10596 -0.323,0.15893 v -0.29736 q 0.25806,-0.12134 0.45117,-0.29394 0.19312,-0.17261 0.27344,-0.33496 h 0.19824 z"
     id="text48"
     aria-label="11" />
  <path
     d="m 147.35742,112 h -0.30762 v -1.96021 q -0.11108,0.10596 -0.29223,0.21192 -0.17945,0.10596 -0.323,0.15893 v -0.29736 q 0.25806,-0.12134 0.45117,-0.29394 0.19312,-0.17261 0.27344,-0.33496 h 0.19824 z m 2.40454,-0.29565 V 112 h -1.656 q -0.003,-0.11108 0.0359,-0.21362 0.0632,-0.16919 0.20166,-0.33325 0.14013,-0.16407 0.40332,-0.3794 0.40844,-0.33496 0.552,-0.52978 0.14355,-0.19654 0.14355,-0.37085 0,-0.18287 -0.13159,-0.30762 -0.12988,-0.12647 -0.34009,-0.12647 -0.22216,0 -0.35547,0.1333 -0.1333,0.13331 -0.13501,0.36915 l -0.31616,-0.0325 q 0.0325,-0.35376 0.24439,-0.53833 0.21191,-0.18627 0.56909,-0.18627 0.36059,0 0.5708,0.19995 0.2102,0.19995 0.2102,0.4956 0,0.15039 -0.0615,0.29566 -0.0615,0.14526 -0.20508,0.3059 -0.14184,0.16065 -0.47339,0.44092 -0.27685,0.23242 -0.35546,0.31616 -0.0786,0.082 -0.12989,0.16578 z"
     id="text49"
     aria-label="12" />
  <path
     d="m 155.35742,112 h -0.30762 v -1.96021 q -0.11108,0.10596 -0.29223,0.21192 -0.17945,0.10596 -0.323,0.15893 v -0.29736 q 0.25806,-0.12134 0.45117,-0.29394 0.19312,-0.17261 0.27344,-0.33496 h 0.19824 z m 0.78955,-0.66138 0.30762,-0.041 q 0.053,0.26147 0.17944,0.37768 0.12818,0.1145 0.31104,0.1145 0.21704,0 0.36572,-0.15039 0.15039,-0.15039 0.15039,-0.37255 0,-0.21192 -0.13843,-0.34864 -0.13842,-0.13842 -0.35205,-0.13842 -0.0872,0 -0.21704,0.0342 l 0.0342,-0.27001 q 0.0308,0.003 0.0496,0.003 0.19654,0 0.35376,-0.10254 0.15723,-0.10253 0.15723,-0.31616 0,-0.16919 -0.1145,-0.28027 -0.11451,-0.11109 -0.29566,-0.11109 -0.17944,0 -0.29907,0.1128 -0.11963,0.11279 -0.15381,0.33838 l -0.30762,-0.0547 q 0.0564,-0.30933 0.25635,-0.47852 0.19995,-0.17089 0.49732,-0.17089 0.20507,0 0.37768,0.0889 0.17261,0.0872 0.26319,0.23926 0.0923,0.1521 0.0923,0.323 0,0.16235 -0.0872,0.29565 -0.0872,0.1333 -0.25805,0.21192 0.22216,0.0513 0.34521,0.21362 0.12305,0.16064 0.12305,0.40332 0,0.32812 -0.23926,0.55713 -0.23926,0.22729 -0.60498,0.22729 -0.32983,0 -0.54858,-0.19653 -0.21705,-0.19653 -0.24781,-0.50928 z"
     id="text50"
     aria-label="13" />
  <path
     d="m 163.35742,112 h -0.30762 v -1.96021 q -0.11108,0.10596 -0.29223,0.21192 -0.17945,0.10596 -0.323,0.15893 v -0.29736 q 0.25806,-0.12134 0.45117,-0.29394 0.19312,-0.17261 0.27344,-0.33496 h 0.19824 z m 1.77393,0 v -0.59985 h -1.08692 v -0.28199 l 1.14331,-1.62353 h 0.25122 v 1.62353 h 0.33838 v 0.28199 h -0.33838 V 112 Z m 0,-0.88184 v -1.12963 l -0.78443,1.12963 z"
     id="text51"
     aria-label="14" />
  <path
     d="m 171.35742,112 h -0.30762 v -1.96021 q -0.11108,0.10596 -0.29223,0.21192 -0.17945,0.10596 -0.323,0.15893 v -0.29736 q 0.25806,-0.12134 0.45117,-0.29394 0.19312,-0.17261 0.27344,-0.33496 h 0.19824 z m 0.78784,-0.65625 0.323,-0.0273 q 0.0359,0.23584 0.16577,0.35547 0.13159,0.11791 0.31617,0.11791 0.22216,0 0.37597,-0.16748 0.15381,-0.16748 0.15381,-0.44433 0,-0.26319 -0.14868,-0.41528 -0.14697,-0.1521 -0.38623,-0.1521 -0.14868,0 -0.26831,0.0684 -0.11963,0.0666 -0.18799,0.17431 l -0.28882,-0.0376 0.24268,-1.28686 h 1.24585 v 0.29394 h -0.99976 l -0.13501,0.67334 q 0.22559,-0.15722 0.47339,-0.15722 0.32812,0 0.55371,0.22729 0.22559,0.2273 0.22559,0.58447 0,0.34009 -0.19825,0.5879 -0.24096,0.30419 -0.65795,0.30419 -0.3418,0 -0.55884,-0.1914 -0.21533,-0.19141 -0.2461,-0.50757 z"
     id="text52"
     aria-label="15" />
  <path
     d="m 179.35742,112 h -0.30762 v -1.96021 q -0.11108,0.10596 -0.29223,0.21192 -0.17945,0.10596 -0.323,0.15893 v -0.29736 q 0.25806,-0.12134 0.45117,-0.29394 0.19312,-0.17261 0.27344,-0.33496 h 0.19824 z m 2.38404,-1.89185 -0.30591,0.0239 q -0.041,-0.18115 -0.11621,-0.26318 -0.12476,-0.1316 -0.30762,-0.1316 -0.14697,0 -0.25806,0.082 -0.14526,0.10595 -0.229,0.30932 -0.0837,0.20337 -0.0872,0.57935 0.11108,-0.16919 0.27173,-0.25122 0.16064,-0.082 0.33667,-0.082 0.30762,0 0.52295,0.22729 0.21704,0.22559 0.21704,0.58447 0,0.23584 -0.10254,0.43921 -0.10083,0.20166 -0.27856,0.30933 -0.17774,0.10766 -0.40333,0.10766 -0.38452,0 -0.62719,-0.28198 -0.24268,-0.28369 -0.24268,-0.9331 0,-0.72632 0.26831,-1.05616 0.23413,-0.2871 0.63062,-0.2871 0.29565,0 0.48364,0.16577 0.1897,0.16577 0.2273,0.458 z m -1.25611,1.08008 q 0,0.15894 0.0666,0.3042 0.0684,0.14527 0.1897,0.22217 0.12134,0.0752 0.25464,0.0752 0.19482,0 0.33496,-0.15722 0.14014,-0.15723 0.14014,-0.42725 0,-0.25976 -0.13843,-0.40844 -0.13843,-0.1504 -0.34864,-0.1504 -0.20849,0 -0.35375,0.1504 -0.14527,0.14868 -0.14527,0.39135 z"
     id="text53"
     aria-label="16" />
</g>
</svg>
